solid OpenSCAD_Model
  facet normal 1 0 0
    outer loop
      vertex -1 -12.88873016277919 -7.843060699181453
      vertex -1 -12.569243251887004 -10.490121959281337
      vertex -1 -12.428941916244323 -10.175
    endloop
  endfacet
  facet normal 1 0 0
    outer loop
      vertex -1 -12.88873016277919 -7.843060699181453
      vertex -1 -12.64096112735765 -10.827528035608372
      vertex -1 -12.569243251887004 -10.490121959281337
    endloop
  endfacet
  facet normal 1 0 0
    outer loop
      vertex -1 -12.88873016277919 -15
      vertex -1 -12.64096112735765 -10.827528035608372
      vertex -1 -12.88873016277919 -7.843060699181453
    endloop
  endfacet
  facet normal 1 0 0
    outer loop
      vertex -1 -12.88873016277919 -7.843060699181453
      vertex -1 -12.428941916244323 -10.175
      vertex -1 -12.2261889620377 -9.895934499507884
    endloop
  endfacet
  facet normal 1 0 0
    outer loop
      vertex -1 -12.88873016277919 -7.843060699181453
      vertex -1 -12.2261889620377 -9.895934499507884
      vertex -1 -11.96984566628258 -9.665121959281336
    endloop
  endfacet
  facet normal 1 0 0
    outer loop
      vertex -1 -11.96984566628258 -9.665121959281336
      vertex -1 -11.67111546107507 -9.492649994889709
      vertex -1 -12.88873016277919 -7.843060699181453
    endloop
  endfacet
  facet normal 1 0 0
    outer loop
      vertex -1 -12.88873016277919 -15
      vertex -1 -12.64096112735765 -11.172471964391628
      vertex -1 -12.64096112735765 -10.827528035608372
    endloop
  endfacet
  facet normal 1 0 0
    outer loop
      vertex -1 -12.88873016277919 -15
      vertex -1 -12.569243251887004 -11.509878040718663
      vertex -1 -12.64096112735765 -11.172471964391628
    endloop
  endfacet
  facet normal 1 0 0
    outer loop
      vertex -1 -12.88873016277919 -15
      vertex -1 -12.428941916244323 -11.825
      vertex -1 -12.569243251887004 -11.509878040718663
    endloop
  endfacet
  facet normal 1 0 0
    outer loop
      vertex -1 -12.88873016277919 -15
      vertex -1 -12.2261889620377 -12.104065500492116
      vertex -1 -12.428941916244323 -11.825
    endloop
  endfacet
  facet normal 1 0 0
    outer loop
      vertex -1 -12.88873016277919 -15
      vertex -1 -11.96984566628258 -12.334878040718664
      vertex -1 -12.2261889620377 -12.104065500492116
    endloop
  endfacet
  facet normal 1 0 0
    outer loop
      vertex -1 -12.88873016277919 -15
      vertex -1 -11.67111546107507 -12.507350005110291
      vertex -1 -11.96984566628258 -12.334878040718664
    endloop
  endfacet
  facet normal 1 0 0
    outer loop
      vertex -1 -12.88873016277919 -15
      vertex -1 -11.343054289849302 -12.61394354121078
      vertex -1 -11.67111546107507 -12.507350005110291
    endloop
  endfacet
  facet normal 1 0 0
    outer loop
      vertex -1 -12.88873016277919 -15
      vertex -1 -11 -12.65
      vertex -1 -11.343054289849302 -12.61394354121078
    endloop
  endfacet
  facet normal 1 0 0
    outer loop
      vertex -1 -12.88873016277919 -15
      vertex -1 -10.656945710150698 -12.61394354121078
      vertex -1 -11 -12.65
    endloop
  endfacet
  facet normal 0 -1 0
    outer loop
      vertex -13 -16 -15
      vertex -1 -16 -7.843060699181453
      vertex -2.7123124994839545 -16 -5.8024061262774795
    endloop
  endfacet
  facet normal 0 -1 0
    outer loop
      vertex -1 -16 -15
      vertex -1 -16 -7.843060699181453
      vertex -13 -16 -15
    endloop
  endfacet
  facet normal 0 0 -1
    outer loop
      vertex -1 -16 -15
      vertex -13 -16 -15
      vertex -3.121320343559643 -13.878679656440358 -15
    endloop
  endfacet
  facet normal 0 0 -1
    outer loop
      vertex -1.565685424949238 -12.323044737829953 -15
      vertex -3.121320343559643 -13.878679656440358 -15
      vertex -13 -16 -15
    endloop
  endfacet
  facet normal 0 0 -1
    outer loop
      vertex -1.565685424949238 -12.323044737829953 -15
      vertex -13 -16 -15
      vertex -3.5 -8 -15
    endloop
  endfacet
  facet normal 1 0 0
    outer loop
      vertex -1 -12.88873016277919 -7.843060699181453
      vertex -1 -11.67111546107507 -9.492649994889709
      vertex -1 -8 -7.843060699181453
    endloop
  endfacet
  facet normal 1 0 0
    outer loop
      vertex -1 -8 -7.843060699181453
      vertex -1 -11.343054289849302 -9.38605645878922
      vertex -1 -11 -9.35
    endloop
  endfacet
  facet normal 1 0 0
    outer loop
      vertex -1 -8 -7.843060699181453
      vertex -1 -11 -9.35
      vertex -1 -10.656945710150698 -9.38605645878922
    endloop
  endfacet
  facet normal 1 0 0
    outer loop
      vertex -1 -8 -7.843060699181453
      vertex -1 -11.67111546107507 -9.492649994889709
      vertex -1 -11.343054289849302 -9.38605645878922
    endloop
  endfacet
  facet normal 1 0 0
    outer loop
      vertex -1 -8 -7.843060699181453
      vertex -1 -10.656945710150698 -9.38605645878922
      vertex -1 -10.32888453892493 -9.492649994889709
    endloop
  endfacet
  facet normal 1 0 0
    outer loop
      vertex -1 -8 -7.843060699181453
      vertex -1 -10.32888453892493 -9.492649994889709
      vertex -1 -10.03015433371742 -9.665121959281336
    endloop
  endfacet
  facet normal 1 0 0
    outer loop
      vertex -1 -8 -7.843060699181453
      vertex -1 -10.03015433371742 -9.665121959281336
      vertex -1 -9.7738110379623 -9.895934499507884
    endloop
  endfacet
  facet normal 1 0 0
    outer loop
      vertex -1 -12.88873016277919 -15
      vertex -1 -8 -15
      vertex -1 -10.656945710150698 -12.61394354121078
    endloop
  endfacet
  facet normal 1 0 0
    outer loop
      vertex -1 -8 -15
      vertex -1 -9.7738110379623 -12.104065500492116
      vertex -1 -10.03015433371742 -12.334878040718664
    endloop
  endfacet
  facet normal 1 0 0
    outer loop
      vertex -1 -8 -15
      vertex -1 -10.32888453892493 -12.507350005110291
      vertex -1 -10.656945710150698 -12.61394354121078
    endloop
  endfacet
  facet normal 1 0 0
    outer loop
      vertex -1 -8 -15
      vertex -1 -10.03015433371742 -12.334878040718664
      vertex -1 -10.32888453892493 -12.507350005110291
    endloop
  endfacet
  facet normal 0 0 -1
    outer loop
      vertex -1 -12.88873016277919 -15
      vertex -1.565685424949238 -12.323044737829953 -15
      vertex -1 -8 -15
    endloop
  endfacet
  facet normal 0 0 -1
    outer loop
      vertex -1.565685424949238 -12.323044737829953 -15
      vertex -3.5 -8 -15
      vertex -1 -8 -15
    endloop
  endfacet
  facet normal 1 0 0
    outer loop
      vertex -1 -8 -7.843060699181453
      vertex -1 -9.7738110379623 -9.895934499507884
      vertex -1 -9.571058083755677 -10.175
    endloop
  endfacet
  facet normal 1 0 0
    outer loop
      vertex -1 -8 -7.843060699181453
      vertex -1 -9.571058083755677 -10.175
      vertex -1 -9.430756748112996 -10.490121959281337
    endloop
  endfacet
  facet normal 1 0 0
    outer loop
      vertex -1 -8 -15
      vertex -1 -8 -7.843060699181453
      vertex -1 -9.430756748112996 -10.490121959281337
    endloop
  endfacet
  facet normal 1 0 0
    outer loop
      vertex -1 -8 -15
      vertex -1 -9.430756748112996 -10.490121959281337
      vertex -1 -9.35903887264235 -10.827528035608372
    endloop
  endfacet
  facet normal 1 0 0
    outer loop
      vertex -1 -8 -15
      vertex -1 -9.35903887264235 -10.827528035608372
      vertex -1 -9.35903887264235 -11.172471964391628
    endloop
  endfacet
  facet normal 1 0 0
    outer loop
      vertex -1 -8 -15
      vertex -1 -9.430756748112996 -11.509878040718663
      vertex -1 -9.571058083755677 -11.825
    endloop
  endfacet
  facet normal 1 0 0
    outer loop
      vertex -1 -8 -15
      vertex -1 -9.571058083755677 -11.825
      vertex -1 -9.7738110379623 -12.104065500492116
    endloop
  endfacet
  facet normal 1 0 0
    outer loop
      vertex -1 -8 -15
      vertex -1 -9.35903887264235 -11.172471964391628
      vertex -1 -9.430756748112996 -11.509878040718663
    endloop
  endfacet
  facet normal 0 0 1
    outer loop
      vertex -7.514718625761433 -16 -1
      vertex -6.742009708806898 -15.453612284938135 -1
      vertex -13 -10.969655114602888 -1
    endloop
  endfacet
  facet normal 0 -1 0
    outer loop
      vertex -13 -16 -15
      vertex -2.7123124994839545 -16 -5.8024061262774795
      vertex -7.514718625761433 -16 -1
    endloop
  endfacet
  facet normal 0 0 1
    outer loop
      vertex -6.742009708806898 -15.453612284938135 -1
      vertex -6.742009708806898 -10.969655114602888 -1
      vertex -13 -10.969655114602888 -1
    endloop
  endfacet
  facet normal 0 0 1
    outer loop
      vertex -13 -16 -1
      vertex -7.514718625761433 -16 -1
      vertex -13 -10.969655114602888 -1
    endloop
  endfacet
  facet normal 0 -1 0
    outer loop
      vertex -13 -16 -1
      vertex -13 -16 -15
      vertex -7.514718625761433 -16 -1
    endloop
  endfacet
  facet normal -1 0 0
    outer loop
      vertex -13 -16 -1
      vertex -13 -12.822134282106667 -8.492047317437663
      vertex -13 -13.303748958979922 -8.92569512028754
    endloop
  endfacet
  facet normal -1 0 0
    outer loop
      vertex -13 -16 -1
      vertex -13 -13.303748958979922 -8.92569512028754
      vertex -13 -13.68467875173176 -9.45
    endloop
  endfacet
  facet normal -1 0 0
    outer loop
      vertex -13 -16 -1
      vertex -13 -13.68467875173176 -9.45
      vertex -13 -13.948275200514976 -10.042047317437664
    endloop
  endfacet
  facet normal -1 0 0
    outer loop
      vertex -13 -16 -1
      vertex -13 -13.948275200514976 -10.042047317437664
      vertex -13 -14.083017875641648 -10.675961763870275
    endloop
  endfacet
  facet normal -1 0 0
    outer loop
      vertex -13 -16 -1
      vertex -13 -14.083017875641648 -10.675961763870275
      vertex -13 -14.083017875641648 -11.324038236129725
    endloop
  endfacet
  facet normal -1 0 0
    outer loop
      vertex -13 -16 -1
      vertex -13 -10.969655114602888 -1
      vertex -13 -11.644526241535054 -7.967742437725202
    endloop
  endfacet
  facet normal -1 0 0
    outer loop
      vertex -13 -16 -1
      vertex -13 -12.260883593534981 -8.168009081307938
      vertex -13 -12.822134282106667 -8.492047317437663
    endloop
  endfacet
  facet normal -1 0 0
    outer loop
      vertex -13 -16 -1
      vertex -13 -11.644526241535054 -7.967742437725202
      vertex -13 -12.260883593534981 -8.168009081307938
    endloop
  endfacet
  facet normal -1 0 0
    outer loop
      vertex -13 -16 -1
      vertex -13 -14.083017875641648 -11.324038236129725
      vertex -13 -16 -15
    endloop
  endfacet
  facet normal -1 0 0
    outer loop
      vertex -13 -16 -15
      vertex -13 -14.083017875641648 -11.324038236129725
      vertex -13 -13.948275200514976 -11.957952682562336
    endloop
  endfacet
  facet normal -1 0 0
    outer loop
      vertex -13 -16 -15
      vertex -13 -13.948275200514976 -11.957952682562336
      vertex -13 -13.68467875173176 -12.55
    endloop
  endfacet
  facet normal -1 0 0
    outer loop
      vertex -13 -16 -15
      vertex -13 -13.68467875173176 -12.55
      vertex -13 -13.303748958979922 -13.07430487971246
    endloop
  endfacet
  facet normal -1 0 0
    outer loop
      vertex -13 -16 -15
      vertex -13 -13.303748958979922 -13.07430487971246
      vertex -13 -12.822134282106667 -13.507952682562337
    endloop
  endfacet
  facet normal -1 0 0
    outer loop
      vertex -13 -16 -15
      vertex -13 -12.822134282106667 -13.507952682562337
      vertex -13 -12.260883593534981 -13.831990918692062
    endloop
  endfacet
  facet normal -1 0 0
    outer loop
      vertex -13 -16 -15
      vertex -13 -12.260883593534981 -13.831990918692062
      vertex -13 -11.644526241535054 -14.032257562274797
    endloop
  endfacet
  facet normal -1 0 0
    outer loop
      vertex -13 -16 -15
      vertex -13 -11.644526241535054 -14.032257562274797
      vertex -13 -11 -14.1
    endloop
  endfacet
  facet normal -1 0 0
    outer loop
      vertex -13 -16 -15
      vertex -13 -11 -14.1
      vertex -13 -10.355473758464946 -14.032257562274797
    endloop
  endfacet
  facet normal -1 0 0
    outer loop
      vertex -13 -10.969655114602888 -1
      vertex -13 -11 -7.9
      vertex -13 -11.644526241535054 -7.967742437725202
    endloop
  endfacet
  facet normal -1 0 0
    outer loop
      vertex -13 -10.969655114602888 -1
      vertex -13 -10.355473758464946 -7.967742437725202
      vertex -13 -11 -7.9
    endloop
  endfacet
  facet normal -1 0 0
    outer loop
      vertex -13 -10.969655114602888 -1
      vertex -13 -9.739116406465019 -8.168009081307938
      vertex -13 -10.355473758464946 -7.967742437725202
    endloop
  endfacet
  facet normal -1 0 0
    outer loop
      vertex -13 -10.969655114602888 -1
      vertex -13 -7 -7.875644347017858
      vertex -13 -9.739116406465019 -8.168009081307938
    endloop
  endfacet
  facet normal 0 1 0
    outer loop
      vertex -3.5 -7 -15
      vertex -13 -7 -15
      vertex -3.5 -7 -7.875644347017859
    endloop
  endfacet
  facet normal 0 0 -1
    outer loop
      vertex -3.5 -8 -15
      vertex -13 -7 -15
      vertex -3.5 -7 -15
    endloop
  endfacet
  facet normal 0 0 -1
    outer loop
      vertex -3.5 -8 -15
      vertex -13 -16 -15
      vertex -13 -7 -15
    endloop
  endfacet
  facet normal -1 0 0
    outer loop
      vertex -13 -16 -15
      vertex -13 -10.355473758464946 -14.032257562274797
      vertex -13 -7 -15
    endloop
  endfacet
  facet normal 0 1 0
    outer loop
      vertex -13 -7 -15
      vertex -13 -7 -7.875644347017858
      vertex -3.5 -7 -7.875644347017859
    endloop
  endfacet
  facet normal -1 0 0
    outer loop
      vertex -13 -7 -7.875644347017858
      vertex -13 -9.177865717893333 -8.492047317437663
      vertex -13 -9.739116406465019 -8.168009081307938
    endloop
  endfacet
  facet normal -1 0 0
    outer loop
      vertex -13 -7 -7.875644347017858
      vertex -13 -8.696251041020078 -8.92569512028754
      vertex -13 -9.177865717893333 -8.492047317437663
    endloop
  endfacet
  facet normal -1 0 0
    outer loop
      vertex -13 -7 -7.875644347017858
      vertex -13 -8.31532124826824 -9.45
      vertex -13 -8.696251041020078 -8.92569512028754
    endloop
  endfacet
  facet normal -1 0 0
    outer loop
      vertex -13 -7 -7.875644347017858
      vertex -13 -8.051724799485024 -10.042047317437664
      vertex -13 -8.31532124826824 -9.45
    endloop
  endfacet
  facet normal -1 0 0
    outer loop
      vertex -13 -7 -7.875644347017858
      vertex -13 -7.916982124358353 -10.675961763870275
      vertex -13 -8.051724799485024 -10.042047317437664
    endloop
  endfacet
  facet normal -1 0 0
    outer loop
      vertex -13 -7 -15
      vertex -13 -7.916982124358353 -10.675961763870275
      vertex -13 -7 -7.875644347017858
    endloop
  endfacet
  facet normal -1 0 0
    outer loop
      vertex -13 -7 -15
      vertex -13 -10.355473758464946 -14.032257562274797
      vertex -13 -9.739116406465019 -13.831990918692062
    endloop
  endfacet
  facet normal -1 0 0
    outer loop
      vertex -13 -7 -15
      vertex -13 -9.739116406465019 -13.831990918692062
      vertex -13 -9.177865717893333 -13.507952682562337
    endloop
  endfacet
  facet normal -1 0 0
    outer loop
      vertex -13 -7 -15
      vertex -13 -9.177865717893333 -13.507952682562337
      vertex -13 -8.696251041020078 -13.07430487971246
    endloop
  endfacet
  facet normal -1 0 0
    outer loop
      vertex -13 -7 -15
      vertex -13 -7.916982124358353 -11.324038236129725
      vertex -13 -7.916982124358353 -10.675961763870275
    endloop
  endfacet
  facet normal -1 0 0
    outer loop
      vertex -13 -7 -15
      vertex -13 -8.051724799485024 -11.957952682562336
      vertex -13 -7.916982124358353 -11.324038236129725
    endloop
  endfacet
  facet normal -1 0 0
    outer loop
      vertex -13 -7 -15
      vertex -13 -8.31532124826824 -12.55
      vertex -13 -8.051724799485024 -11.957952682562336
    endloop
  endfacet
  facet normal -1 0 0
    outer loop
      vertex -13 -7 -15
      vertex -13 -8.696251041020078 -13.07430487971246
      vertex -13 -8.31532124826824 -12.55
    endloop
  endfacet
  facet normal 0.7071067811865476 -0.7071067811865476 0
    outer loop
      vertex -1 -16 -15
      vertex 0.5093333532153306 -14.49066664678467 -9.641814145298088
      vertex -1 -16 -7.843060699181453
    endloop
  endfacet
  facet normal 0.7071067811865492 -0.7071067811865459 0
    outer loop
      vertex 0.5556349186104048 -14.444365081389595 -15
      vertex 0.5556349186104048 -14.444365081389595 -9.60296251885215
      vertex 0.5093333532153306 -14.49066664678467 -9.641814145298088
    endloop
  endfacet
  facet normal 0.7071067811865492 0.7071067811865459 0
    outer loop
      vertex 0.5556349186104048 -14.444365081389595 -15
      vertex 0.5093333532153306 -14.39806351599452 -9.641814145298088
      vertex 0.5556349186104048 -14.444365081389595 -9.60296251885215
    endloop
  endfacet
  facet normal 0.7071067811865476 -0.7071067811865475 -1.866612096251416e-17
    outer loop
      vertex -1 -16 -15
      vertex 0.5556349186104048 -14.444365081389595 -15
      vertex 0.5093333532153306 -14.49066664678467 -9.641814145298088
    endloop
  endfacet
  facet normal 0.7071067811865476 0.7071067811865475 -2.8904763246536574e-17
    outer loop
      vertex 0.5556349186104048 -14.444365081389595 -15
      vertex -1 -12.88873016277919 -15
      vertex 0.5093333532153306 -14.39806351599452 -9.641814145298088
    endloop
  endfacet
  facet normal 0 0 -1
    outer loop
      vertex -1 -16 -15
      vertex -1 -12.88873016277919 -15
      vertex 0.5556349186104048 -14.444365081389595 -15
    endloop
  endfacet
  facet normal 0 0 -1
    outer loop
      vertex -1 -16 -15
      vertex -3.121320343559643 -13.878679656440358 -15
      vertex -1.565685424949238 -12.323044737829953 -15
    endloop
  endfacet
  facet normal 0.7071067811865476 0.7071067811865476 0
    outer loop
      vertex -1 -12.88873016277919 -15
      vertex -1 -12.88873016277919 -7.843060699181453
      vertex 0.5093333532153306 -14.39806351599452 -9.641814145298088
    endloop
  endfacet
  facet normal 0 0 -1
    outer loop
      vertex -1 -16 -15
      vertex -1.565685424949238 -12.323044737829953 -15
      vertex -1 -12.88873016277919 -15
    endloop
  endfacet
  facet normal 0 -1 0
    outer loop
      vertex -1 -8 -15
      vertex -0.5 -8 -8.438937495478557
      vertex -1 -8 -7.843060699181453
    endloop
  endfacet
  facet normal 0 1 0
    outer loop
      vertex -0.5 -7 -15
      vertex -0.9726590731180615 -7 -7.875644347017858
      vertex -0.5 -7 -8.438937495478557
    endloop
  endfacet
  facet normal 1 0 0
    outer loop
      vertex -0.5 -7 -15
      vertex -0.5 -7 -8.438937495478557
      vertex -0.5 -8 -8.438937495478557
    endloop
  endfacet
  facet normal 0 1 0
    outer loop
      vertex -3.5 -7 -15
      vertex -3.5 -7 -7.875644347017859
      vertex -0.9726590731180615 -7 -7.875644347017858
    endloop
  endfacet
  facet normal 0 -1 0
    outer loop
      vertex -0.5 -8 -15
      vertex -0.5 -8 -8.438937495478557
      vertex -1 -8 -15
    endloop
  endfacet
  facet normal 1 0 0
    outer loop
      vertex -0.5 -8 -15
      vertex -0.5 -7 -15
      vertex -0.5 -8 -8.438937495478557
    endloop
  endfacet
  facet normal 0 0 -1
    outer loop
      vertex -0.5 -8 -15
      vertex -1 -8 -15
      vertex -0.5 -7 -15
    endloop
  endfacet
  facet normal 0 1 0
    outer loop
      vertex -0.5 -7 -15
      vertex -3.5 -7 -15
      vertex -0.9726590731180615 -7 -7.875644347017858
    endloop
  endfacet
  facet normal 0 0 -1
    outer loop
      vertex -1 -8 -15
      vertex -3.5 -8 -15
      vertex -0.5 -7 -15
    endloop
  endfacet
  facet normal 0 0 -1
    outer loop
      vertex -0.5 -7 -15
      vertex -3.5 -8 -15
      vertex -3.5 -7 -15
    endloop
  endfacet
  facet normal 0 1 0
    outer loop
      vertex -5 -12.64096112735765 -11.172471964391628
      vertex -1 -12.64096112735765 -10.827528035608372
      vertex -1 -12.64096112735765 -11.172471964391628
    endloop
  endfacet
  facet normal 0 0.4999999999999986 -0.8660254037844394
    outer loop
      vertex -5 -11.96984566628258 -9.665121959281336
      vertex -1 -11.67111546107507 -9.492649994889709
      vertex -1 -11.96984566628258 -9.665121959281336
    endloop
  endfacet
  facet normal 0 0.3090169943749492 -0.951056516295153
    outer loop
      vertex -5 -11.67111546107507 -9.492649994889709
      vertex -1 -11.343054289849302 -9.38605645878922
      vertex -1 -11.67111546107507 -9.492649994889709
    endloop
  endfacet
  facet normal 0 0.8090169943749477 -0.5877852522924728
    outer loop
      vertex -5 -12.428941916244323 -10.175
      vertex -1 -12.2261889620377 -9.895934499507884
      vertex -1 -12.428941916244323 -10.175
    endloop
  endfacet
  facet normal 0 0.9135454576425996 -0.40673664307580315
    outer loop
      vertex -5 -12.569243251887004 -10.490121959281337
      vertex -1 -12.428941916244323 -10.175
      vertex -1 -12.569243251887004 -10.490121959281337
    endloop
  endfacet
  facet normal 0 0.6691306063588606 -0.7431448254773921
    outer loop
      vertex -5 -12.2261889620377 -9.895934499507884
      vertex -1 -11.96984566628258 -9.665121959281336
      vertex -1 -12.2261889620377 -9.895934499507884
    endloop
  endfacet
  facet normal 0 0.9781476007338062 -0.20791169081775673
    outer loop
      vertex -5 -12.64096112735765 -10.827528035608372
      vertex -1 -12.569243251887004 -10.490121959281337
      vertex -1 -12.64096112735765 -10.827528035608372
    endloop
  endfacet
  facet normal 0 0.9781476007338062 0.20791169081775673
    outer loop
      vertex -5 -12.569243251887004 -11.509878040718663
      vertex -1 -12.64096112735765 -11.172471964391628
      vertex -1 -12.569243251887004 -11.509878040718663
    endloop
  endfacet
  facet normal 0 0.9135454576425996 0.40673664307580315
    outer loop
      vertex -5 -12.428941916244323 -11.825
      vertex -1 -12.569243251887004 -11.509878040718663
      vertex -1 -12.428941916244323 -11.825
    endloop
  endfacet
  facet normal 0 0.8090169943749477 0.5877852522924728
    outer loop
      vertex -5 -12.2261889620377 -12.104065500492116
      vertex -1 -12.428941916244323 -11.825
      vertex -1 -12.2261889620377 -12.104065500492116
    endloop
  endfacet
  facet normal 0 0.6691306063588606 0.7431448254773921
    outer loop
      vertex -5 -11.96984566628258 -12.334878040718664
      vertex -1 -12.2261889620377 -12.104065500492116
      vertex -1 -11.96984566628258 -12.334878040718664
    endloop
  endfacet
  facet normal 0 0.4999999999999986 0.8660254037844394
    outer loop
      vertex -5 -11.67111546107507 -12.507350005110291
      vertex -1 -11.96984566628258 -12.334878040718664
      vertex -1 -11.67111546107507 -12.507350005110291
    endloop
  endfacet
  facet normal 0 1 0
    outer loop
      vertex -5 -12.64096112735765 -10.827528035608372
      vertex -1 -12.64096112735765 -10.827528035608372
      vertex -5 -12.64096112735765 -11.172471964391628
    endloop
  endfacet
  facet normal 0 0.6691306063588606 -0.7431448254773921
    outer loop
      vertex -5 -11.96984566628258 -9.665121959281336
      vertex -1 -11.96984566628258 -9.665121959281336
      vertex -5 -12.2261889620377 -9.895934499507884
    endloop
  endfacet
  facet normal -2.2212142671460633e-18 0.4999999999999986 -0.8660254037844394
    outer loop
      vertex -5 -11.96984566628258 -9.665121959281336
      vertex -5 -11.67111546107507 -9.492649994889709
      vertex -1 -11.67111546107507 -9.492649994889709
    endloop
  endfacet
  facet normal 0 0.9781476007338062 -0.20791169081775673
    outer loop
      vertex -5 -12.569243251887004 -10.490121959281337
      vertex -1 -12.569243251887004 -10.490121959281337
      vertex -5 -12.64096112735765 -10.827528035608372
    endloop
  endfacet
  facet normal -7.536540809824442e-19 0.9135454576425996 -0.40673664307580315
    outer loop
      vertex -5 -12.569243251887004 -10.490121959281337
      vertex -5 -12.428941916244323 -10.175
      vertex -1 -12.428941916244323 -10.175
    endloop
  endfacet
  facet normal 0 0.8090169943749477 -0.5877852522924728
    outer loop
      vertex -5 -12.2261889620377 -9.895934499507884
      vertex -1 -12.2261889620377 -9.895934499507884
      vertex -5 -12.428941916244323 -10.175
    endloop
  endfacet
  facet normal 0 0.9781476007338062 0.20791169081775673
    outer loop
      vertex -5 -12.64096112735765 -11.172471964391628
      vertex -1 -12.64096112735765 -11.172471964391628
      vertex -5 -12.569243251887004 -11.509878040718663
    endloop
  endfacet
  facet normal 0 0.9135454576425996 0.40673664307580315
    outer loop
      vertex -5 -12.569243251887004 -11.509878040718663
      vertex -1 -12.569243251887004 -11.509878040718663
      vertex -5 -12.428941916244323 -11.825
    endloop
  endfacet
  facet normal 0 0.8090169943749477 0.5877852522924728
    outer loop
      vertex -5 -12.428941916244323 -11.825
      vertex -1 -12.428941916244323 -11.825
      vertex -5 -12.2261889620377 -12.104065500492116
    endloop
  endfacet
  facet normal 0 0.6691306063588606 0.7431448254773921
    outer loop
      vertex -5 -12.2261889620377 -12.104065500492116
      vertex -1 -12.2261889620377 -12.104065500492116
      vertex -5 -11.96984566628258 -12.334878040718664
    endloop
  endfacet
  facet normal 0 0.4999999999999986 0.8660254037844394
    outer loop
      vertex -5 -11.96984566628258 -12.334878040718664
      vertex -1 -11.96984566628258 -12.334878040718664
      vertex -5 -11.67111546107507 -12.507350005110291
    endloop
  endfacet
  facet normal 0 0.3090169943749492 0.951056516295153
    outer loop
      vertex -5 -11.67111546107507 -12.507350005110291
      vertex -1 -11.67111546107507 -12.507350005110291
      vertex -5 -11.343054289849302 -12.61394354121078
    endloop
  endfacet
  facet normal 0 0.1045284632676524 -0.9945218953682735
    outer loop
      vertex -5 -11.343054289849302 -9.38605645878922
      vertex -1 -11 -9.35
      vertex -1 -11.343054289849302 -9.38605645878922
    endloop
  endfacet
  facet normal 0 -0.1045284632676524 -0.9945218953682735
    outer loop
      vertex -5 -11 -9.35
      vertex -1 -10.656945710150698 -9.38605645878922
      vertex -1 -11 -9.35
    endloop
  endfacet
  facet normal 0 -0.3090169943749492 -0.951056516295153
    outer loop
      vertex -5 -10.656945710150698 -9.38605645878922
      vertex -1 -10.32888453892493 -9.492649994889709
      vertex -1 -10.656945710150698 -9.38605645878922
    endloop
  endfacet
  facet normal 0 -0.4999999999999986 -0.8660254037844394
    outer loop
      vertex -5 -10.32888453892493 -9.492649994889709
      vertex -1 -10.03015433371742 -9.665121959281336
      vertex -1 -10.32888453892493 -9.492649994889709
    endloop
  endfacet
  facet normal 0 -0.6691306063588606 -0.7431448254773921
    outer loop
      vertex -5 -10.03015433371742 -9.665121959281336
      vertex -1 -9.7738110379623 -9.895934499507884
      vertex -1 -10.03015433371742 -9.665121959281336
    endloop
  endfacet
  facet normal 0 -0.8090169943749477 -0.5877852522924728
    outer loop
      vertex -5 -9.7738110379623 -9.895934499507884
      vertex -1 -9.571058083755677 -10.175
      vertex -1 -9.7738110379623 -9.895934499507884
    endloop
  endfacet
  facet normal 0 -0.9135454576425996 -0.40673664307580315
    outer loop
      vertex -5 -9.571058083755677 -10.175
      vertex -1 -9.430756748112996 -10.490121959281337
      vertex -1 -9.571058083755677 -10.175
    endloop
  endfacet
  facet normal 0 -0.9781476007338062 -0.20791169081775673
    outer loop
      vertex -5 -9.430756748112996 -10.490121959281337
      vertex -1 -9.35903887264235 -10.827528035608372
      vertex -1 -9.430756748112996 -10.490121959281337
    endloop
  endfacet
  facet normal 0 -1 0
    outer loop
      vertex -5 -9.35903887264235 -10.827528035608372
      vertex -1 -9.35903887264235 -11.172471964391628
      vertex -1 -9.35903887264235 -10.827528035608372
    endloop
  endfacet
  facet normal 0 -0.9781476007338062 0.20791169081775673
    outer loop
      vertex -5 -9.35903887264235 -11.172471964391628
      vertex -1 -9.430756748112996 -11.509878040718663
      vertex -1 -9.35903887264235 -11.172471964391628
    endloop
  endfacet
  facet normal 0 0.3090169943749492 0.951056516295153
    outer loop
      vertex -5 -11.343054289849302 -12.61394354121078
      vertex -1 -11.67111546107507 -12.507350005110291
      vertex -1 -11.343054289849302 -12.61394354121078
    endloop
  endfacet
  facet normal 0 0.1045284632676524 0.9945218953682735
    outer loop
      vertex -5 -11 -12.65
      vertex -1 -11.343054289849302 -12.61394354121078
      vertex -1 -11 -12.65
    endloop
  endfacet
  facet normal 0 -0.1045284632676524 0.9945218953682735
    outer loop
      vertex -5 -10.656945710150698 -12.61394354121078
      vertex -1 -11 -12.65
      vertex -1 -10.656945710150698 -12.61394354121078
    endloop
  endfacet
  facet normal 0 -0.3090169943749492 0.951056516295153
    outer loop
      vertex -5 -10.32888453892493 -12.507350005110291
      vertex -1 -10.656945710150698 -12.61394354121078
      vertex -1 -10.32888453892493 -12.507350005110291
    endloop
  endfacet
  facet normal 0 -0.6691306063588606 0.7431448254773921
    outer loop
      vertex -5 -9.7738110379623 -12.104065500492116
      vertex -1 -10.03015433371742 -12.334878040718664
      vertex -1 -9.7738110379623 -12.104065500492116
    endloop
  endfacet
  facet normal 0 -0.4999999999999986 0.8660254037844394
    outer loop
      vertex -5 -10.03015433371742 -12.334878040718664
      vertex -1 -10.32888453892493 -12.507350005110291
      vertex -1 -10.03015433371742 -12.334878040718664
    endloop
  endfacet
  facet normal 0 -0.8090169943749477 0.5877852522924728
    outer loop
      vertex -5 -9.571058083755677 -11.825
      vertex -1 -9.7738110379623 -12.104065500492116
      vertex -1 -9.571058083755677 -11.825
    endloop
  endfacet
  facet normal 0 -0.9135454576425996 0.40673664307580315
    outer loop
      vertex -5 -9.430756748112996 -11.509878040718663
      vertex -1 -9.571058083755677 -11.825
      vertex -1 -9.430756748112996 -11.509878040718663
    endloop
  endfacet
  facet normal 4.903928965792671e-20 0.3090169943749492 -0.951056516295153
    outer loop
      vertex -5 -11.67111546107507 -9.492649994889709
      vertex -5 -11.343054289849302 -9.38605645878922
      vertex -1 -11.343054289849302 -9.38605645878922
    endloop
  endfacet
  facet normal -3.7777628165759775e-19 0.1045284632676524 -0.9945218953682735
    outer loop
      vertex -5 -11.343054289849302 -9.38605645878922
      vertex -5 -11 -9.35
      vertex -1 -11 -9.35
    endloop
  endfacet
  facet normal 3.7777628165759775e-19 -0.1045284632676524 -0.9945218953682735
    outer loop
      vertex -5 -11 -9.35
      vertex -5 -10.656945710150698 -9.38605645878922
      vertex -1 -10.656945710150698 -9.38605645878922
    endloop
  endfacet
  facet normal -4.903928965792671e-20 -0.3090169943749492 -0.951056516295153
    outer loop
      vertex -5 -10.656945710150698 -9.38605645878922
      vertex -5 -10.32888453892493 -9.492649994889709
      vertex -1 -10.32888453892493 -9.492649994889709
    endloop
  endfacet
  facet normal 2.2212142671460633e-18 -0.4999999999999986 -0.8660254037844394
    outer loop
      vertex -5 -10.32888453892493 -9.492649994889709
      vertex -5 -10.03015433371742 -9.665121959281336
      vertex -1 -10.03015433371742 -9.665121959281336
    endloop
  endfacet
  facet normal 2.401534609873406e-18 -0.6691306063588606 -0.7431448254773921
    outer loop
      vertex -5 -10.03015433371742 -9.665121959281336
      vertex -5 -9.7738110379623 -9.895934499507884
      vertex -1 -9.7738110379623 -9.895934499507884
    endloop
  endfacet
  facet normal 1.7980926798136276e-18 -0.8090169943749477 -0.5877852522924728
    outer loop
      vertex -5 -9.7738110379623 -9.895934499507884
      vertex -5 -9.571058083755677 -10.175
      vertex -1 -9.571058083755677 -10.175
    endloop
  endfacet
  facet normal 7.536540809824442e-19 -0.9135454576425996 -0.40673664307580315
    outer loop
      vertex -5 -9.571058083755677 -10.175
      vertex -5 -9.430756748112996 -10.490121959281337
      vertex -1 -9.430756748112996 -10.490121959281337
    endloop
  endfacet
  facet normal -1.2045335010018066e-18 -0.9781476007338062 -0.20791169081775673
    outer loop
      vertex -5 -9.430756748112996 -10.490121959281337
      vertex -5 -9.35903887264235 -10.827528035608372
      vertex -1 -9.35903887264235 -10.827528035608372
    endloop
  endfacet
  facet normal 0 -1 0
    outer loop
      vertex -5 -9.35903887264235 -10.827528035608372
      vertex -5 -9.35903887264235 -11.172471964391628
      vertex -1 -9.35903887264235 -11.172471964391628
    endloop
  endfacet
  facet normal 0 -0.9781476007338062 0.20791169081775673
    outer loop
      vertex -5 -9.430756748112996 -11.509878040718663
      vertex -1 -9.430756748112996 -11.509878040718663
      vertex -5 -9.35903887264235 -11.172471964391628
    endloop
  endfacet
  facet normal 0 0.1045284632676524 0.9945218953682735
    outer loop
      vertex -5 -11.343054289849302 -12.61394354121078
      vertex -1 -11.343054289849302 -12.61394354121078
      vertex -5 -11 -12.65
    endloop
  endfacet
  facet normal 0 -0.1045284632676524 0.9945218953682735
    outer loop
      vertex -5 -11 -12.65
      vertex -1 -11 -12.65
      vertex -5 -10.656945710150698 -12.61394354121078
    endloop
  endfacet
  facet normal 4.903928965792671e-20 -0.3090169943749492 0.951056516295153
    outer loop
      vertex -5 -10.32888453892493 -12.507350005110291
      vertex -5 -10.656945710150698 -12.61394354121078
      vertex -1 -10.656945710150698 -12.61394354121078
    endloop
  endfacet
  facet normal -2.401534609873406e-18 -0.6691306063588606 0.7431448254773921
    outer loop
      vertex -5 -9.7738110379623 -12.104065500492116
      vertex -5 -10.03015433371742 -12.334878040718664
      vertex -1 -10.03015433371742 -12.334878040718664
    endloop
  endfacet
  facet normal 0 -0.4999999999999986 0.8660254037844394
    outer loop
      vertex -5 -10.32888453892493 -12.507350005110291
      vertex -1 -10.32888453892493 -12.507350005110291
      vertex -5 -10.03015433371742 -12.334878040718664
    endloop
  endfacet
  facet normal -1.7980926798136276e-18 -0.8090169943749477 0.5877852522924728
    outer loop
      vertex -5 -9.571058083755677 -11.825
      vertex -5 -9.7738110379623 -12.104065500492116
      vertex -1 -9.7738110379623 -12.104065500492116
    endloop
  endfacet
  facet normal -7.536540809824442e-19 -0.9135454576425996 0.40673664307580315
    outer loop
      vertex -5 -9.430756748112996 -11.509878040718663
      vertex -5 -9.571058083755677 -11.825
      vertex -1 -9.571058083755677 -11.825
    endloop
  endfacet
  facet normal -1 0 0
    outer loop
      vertex -5 -14.083017875641648 -10.675961763870275
      vertex -5 -13.948275200514976 -11.957952682562336
      vertex -5 -14.083017875641648 -11.324038236129725
    endloop
  endfacet
  facet normal -1 0 0
    outer loop
      vertex -5 -13.948275200514976 -10.042047317437664
      vertex -5 -13.948275200514976 -11.957952682562336
      vertex -5 -14.083017875641648 -10.675961763870275
    endloop
  endfacet
  facet normal -1 0 0
    outer loop
      vertex -5 -13.68467875173176 -9.45
      vertex -5 -13.68467875173176 -12.55
      vertex -5 -13.948275200514976 -10.042047317437664
    endloop
  endfacet
  facet normal -1 0 0
    outer loop
      vertex -5 -13.948275200514976 -10.042047317437664
      vertex -5 -13.68467875173176 -12.55
      vertex -5 -13.948275200514976 -11.957952682562336
    endloop
  endfacet
  facet normal -1 0 0
    outer loop
      vertex -5 -13.303748958979922 -8.92569512028754
      vertex -5 -13.303748958979922 -13.07430487971246
      vertex -5 -13.68467875173176 -9.45
    endloop
  endfacet
  facet normal -1 0 0
    outer loop
      vertex -5 -13.303748958979922 -8.92569512028754
      vertex -5 -12.822134282106667 -8.492047317437663
      vertex -5 -12.822134282106667 -13.507952682562337
    endloop
  endfacet
  facet normal -1 0 0
    outer loop
      vertex -5 -12.822134282106667 -8.492047317437663
      vertex -5 -12.569243251887004 -10.490121959281337
      vertex -5 -12.64096112735765 -10.827528035608372
    endloop
  endfacet
  facet normal -1 0 0
    outer loop
      vertex -5 -12.822134282106667 -8.492047317437663
      vertex -5 -12.64096112735765 -10.827528035608372
      vertex -5 -12.64096112735765 -11.172471964391628
    endloop
  endfacet
  facet normal -1 0 0
    outer loop
      vertex -5 -12.822134282106667 -8.492047317437663
      vertex -5 -12.64096112735765 -11.172471964391628
      vertex -5 -12.822134282106667 -13.507952682562337
    endloop
  endfacet
  facet normal -1 0 0
    outer loop
      vertex -5 -12.822134282106667 -8.492047317437663
      vertex -5 -12.260883593534981 -8.168009081307938
      vertex -5 -12.2261889620377 -9.895934499507884
    endloop
  endfacet
  facet normal -1 0 0
    outer loop
      vertex -5 -12.822134282106667 -8.492047317437663
      vertex -5 -12.2261889620377 -9.895934499507884
      vertex -5 -12.428941916244323 -10.175
    endloop
  endfacet
  facet normal -1 0 0
    outer loop
      vertex -5 -12.822134282106667 -8.492047317437663
      vertex -5 -12.428941916244323 -10.175
      vertex -5 -12.569243251887004 -10.490121959281337
    endloop
  endfacet
  facet normal -1 0 0
    outer loop
      vertex -5 -12.260883593534981 -8.168009081307938
      vertex -5 -11.96984566628258 -9.665121959281336
      vertex -5 -12.2261889620377 -9.895934499507884
    endloop
  endfacet
  facet normal -1 0 0
    outer loop
      vertex -5 -12.260883593534981 -8.168009081307938
      vertex -5 -11.644526241535054 -7.967742437725202
      vertex -5 -11.343054289849302 -9.38605645878922
    endloop
  endfacet
  facet normal -1 0 0
    outer loop
      vertex -5 -12.260883593534981 -8.168009081307938
      vertex -5 -11.67111546107507 -9.492649994889709
      vertex -5 -11.96984566628258 -9.665121959281336
    endloop
  endfacet
  facet normal -1 0 0
    outer loop
      vertex -5 -12.260883593534981 -8.168009081307938
      vertex -5 -11.343054289849302 -9.38605645878922
      vertex -5 -11.67111546107507 -9.492649994889709
    endloop
  endfacet
  facet normal -1 0 0
    outer loop
      vertex -5 -13.68467875173176 -9.45
      vertex -5 -13.303748958979922 -13.07430487971246
      vertex -5 -13.68467875173176 -12.55
    endloop
  endfacet
  facet normal -1 0 0
    outer loop
      vertex -5 -13.303748958979922 -8.92569512028754
      vertex -5 -12.822134282106667 -13.507952682562337
      vertex -5 -13.303748958979922 -13.07430487971246
    endloop
  endfacet
  facet normal -1 0 0
    outer loop
      vertex -5 -12.64096112735765 -11.172471964391628
      vertex -5 -12.569243251887004 -11.509878040718663
      vertex -5 -12.822134282106667 -13.507952682562337
    endloop
  endfacet
  facet normal -1 0 0
    outer loop
      vertex -5 -12.569243251887004 -11.509878040718663
      vertex -5 -12.428941916244323 -11.825
      vertex -5 -12.260883593534981 -13.831990918692062
    endloop
  endfacet
  facet normal -1 0 0
    outer loop
      vertex -5 -12.569243251887004 -11.509878040718663
      vertex -5 -12.260883593534981 -13.831990918692062
      vertex -5 -12.822134282106667 -13.507952682562337
    endloop
  endfacet
  facet normal -1 0 0
    outer loop
      vertex -5 -12.428941916244323 -11.825
      vertex -5 -12.2261889620377 -12.104065500492116
      vertex -5 -12.260883593534981 -13.831990918692062
    endloop
  endfacet
  facet normal -1 0 0
    outer loop
      vertex -5 -12.2261889620377 -12.104065500492116
      vertex -5 -11.96984566628258 -12.334878040718664
      vertex -5 -12.260883593534981 -13.831990918692062
    endloop
  endfacet
  facet normal -1 0 0
    outer loop
      vertex -5 -11.96984566628258 -12.334878040718664
      vertex -5 -11.67111546107507 -12.507350005110291
      vertex -5 -11.644526241535054 -14.032257562274797
    endloop
  endfacet
  facet normal -1 0 0
    outer loop
      vertex -5 -11.67111546107507 -12.507350005110291
      vertex -5 -11.343054289849302 -12.61394354121078
      vertex -5 -11.644526241535054 -14.032257562274797
    endloop
  endfacet
  facet normal -1 0 0
    outer loop
      vertex -5 -11.96984566628258 -12.334878040718664
      vertex -5 -11.644526241535054 -14.032257562274797
      vertex -5 -12.260883593534981 -13.831990918692062
    endloop
  endfacet
  facet normal -1 0 0
    outer loop
      vertex -5 -11.644526241535054 -7.967742437725202
      vertex -5 -11 -7.9
      vertex -5 -11 -9.35
    endloop
  endfacet
  facet normal -1 0 0
    outer loop
      vertex -5 -11.644526241535054 -7.967742437725202
      vertex -5 -11 -9.35
      vertex -5 -11.343054289849302 -9.38605645878922
    endloop
  endfacet
  facet normal -1 0 0
    outer loop
      vertex -5 -11 -7.9
      vertex -5 -10.355473758464946 -7.967742437725202
      vertex -5 -10.656945710150698 -9.38605645878922
    endloop
  endfacet
  facet normal -1 0 0
    outer loop
      vertex -5 -11 -7.9
      vertex -5 -10.656945710150698 -9.38605645878922
      vertex -5 -11 -9.35
    endloop
  endfacet
  facet normal -1 0 0
    outer loop
      vertex -5 -10.355473758464946 -7.967742437725202
      vertex -5 -10.32888453892493 -9.492649994889709
      vertex -5 -10.656945710150698 -9.38605645878922
    endloop
  endfacet
  facet normal -1 0 0
    outer loop
      vertex -5 -10.355473758464946 -7.967742437725202
      vertex -5 -9.739116406465019 -8.168009081307938
      vertex -5 -10.03015433371742 -9.665121959281336
    endloop
  endfacet
  facet normal -1 0 0
    outer loop
      vertex -5 -10.355473758464946 -7.967742437725202
      vertex -5 -10.03015433371742 -9.665121959281336
      vertex -5 -10.32888453892493 -9.492649994889709
    endloop
  endfacet
  facet normal -1 0 0
    outer loop
      vertex -5 -9.739116406465019 -8.168009081307938
      vertex -5 -9.7738110379623 -9.895934499507884
      vertex -5 -10.03015433371742 -9.665121959281336
    endloop
  endfacet
  facet normal -1 0 0
    outer loop
      vertex -5 -9.739116406465019 -8.168009081307938
      vertex -5 -9.571058083755677 -10.175
      vertex -5 -9.7738110379623 -9.895934499507884
    endloop
  endfacet
  facet normal -1 0 0
    outer loop
      vertex -5 -9.739116406465019 -8.168009081307938
      vertex -5 -9.430756748112996 -10.490121959281337
      vertex -5 -9.571058083755677 -10.175
    endloop
  endfacet
  facet normal -1 0 0
    outer loop
      vertex -5 -9.739116406465019 -8.168009081307938
      vertex -5 -9.177865717893333 -8.492047317437663
      vertex -5 -9.430756748112996 -10.490121959281337
    endloop
  endfacet
  facet normal -1 0 0
    outer loop
      vertex -5 -9.177865717893333 -8.492047317437663
      vertex -5 -9.35903887264235 -10.827528035608372
      vertex -5 -9.430756748112996 -10.490121959281337
    endloop
  endfacet
  facet normal -1 0 0
    outer loop
      vertex -5 -11.343054289849302 -12.61394354121078
      vertex -5 -11 -12.65
      vertex -5 -11 -14.1
    endloop
  endfacet
  facet normal -1 0 0
    outer loop
      vertex -5 -11 -12.65
      vertex -5 -10.656945710150698 -12.61394354121078
      vertex -5 -10.355473758464946 -14.032257562274797
    endloop
  endfacet
  facet normal -1 0 0
    outer loop
      vertex -5 -11.343054289849302 -12.61394354121078
      vertex -5 -11 -14.1
      vertex -5 -11.644526241535054 -14.032257562274797
    endloop
  endfacet
  facet normal -1 0 0
    outer loop
      vertex -5 -11 -12.65
      vertex -5 -10.355473758464946 -14.032257562274797
      vertex -5 -11 -14.1
    endloop
  endfacet
  facet normal -1 0 0
    outer loop
      vertex -5 -10.32888453892493 -12.507350005110291
      vertex -5 -9.739116406465019 -13.831990918692062
      vertex -5 -10.656945710150698 -12.61394354121078
    endloop
  endfacet
  facet normal -1 0 0
    outer loop
      vertex -5 -9.7738110379623 -12.104065500492116
      vertex -5 -9.739116406465019 -13.831990918692062
      vertex -5 -10.03015433371742 -12.334878040718664
    endloop
  endfacet
  facet normal -1 0 0
    outer loop
      vertex -5 -10.32888453892493 -12.507350005110291
      vertex -5 -10.03015433371742 -12.334878040718664
      vertex -5 -9.739116406465019 -13.831990918692062
    endloop
  endfacet
  facet normal -1 0 0
    outer loop
      vertex -5 -9.35903887264235 -10.827528035608372
      vertex -5 -9.177865717893333 -13.507952682562337
      vertex -5 -9.35903887264235 -11.172471964391628
    endloop
  endfacet
  facet normal -1 0 0
    outer loop
      vertex -5 -9.430756748112996 -11.509878040718663
      vertex -5 -9.177865717893333 -13.507952682562337
      vertex -5 -9.571058083755677 -11.825
    endloop
  endfacet
  facet normal -1 0 0
    outer loop
      vertex -5 -9.430756748112996 -11.509878040718663
      vertex -5 -9.35903887264235 -11.172471964391628
      vertex -5 -9.177865717893333 -13.507952682562337
    endloop
  endfacet
  facet normal -1 0 0
    outer loop
      vertex -5 -9.7738110379623 -12.104065500492116
      vertex -5 -9.177865717893333 -13.507952682562337
      vertex -5 -9.739116406465019 -13.831990918692062
    endloop
  endfacet
  facet normal -1 0 0
    outer loop
      vertex -5 -9.571058083755677 -11.825
      vertex -5 -9.177865717893333 -13.507952682562337
      vertex -5 -9.7738110379623 -12.104065500492116
    endloop
  endfacet
  facet normal -1 0 0
    outer loop
      vertex -5 -10.656945710150698 -12.61394354121078
      vertex -5 -9.739116406465019 -13.831990918692062
      vertex -5 -10.355473758464946 -14.032257562274797
    endloop
  endfacet
  facet normal -1 0 0
    outer loop
      vertex -5 -9.177865717893333 -8.492047317437663
      vertex -5 -8.696251041020078 -8.92569512028754
      vertex -5 -8.696251041020078 -13.07430487971246
    endloop
  endfacet
  facet normal -1 0 0
    outer loop
      vertex -5 -9.177865717893333 -8.492047317437663
      vertex -5 -9.177865717893333 -13.507952682562337
      vertex -5 -9.35903887264235 -10.827528035608372
    endloop
  endfacet
  facet normal -1 0 0
    outer loop
      vertex -5 -8.696251041020078 -8.92569512028754
      vertex -5 -8.31532124826824 -9.45
      vertex -5 -8.31532124826824 -12.55
    endloop
  endfacet
  facet normal -1 0 0
    outer loop
      vertex -5 -8.31532124826824 -9.45
      vertex -5 -8.051724799485024 -10.042047317437664
      vertex -5 -8.051724799485024 -11.957952682562336
    endloop
  endfacet
  facet normal -1 0 0
    outer loop
      vertex -5 -8.31532124826824 -9.45
      vertex -5 -8.051724799485024 -11.957952682562336
      vertex -5 -8.31532124826824 -12.55
    endloop
  endfacet
  facet normal -1 0 0
    outer loop
      vertex -5 -8.051724799485024 -10.042047317437664
      vertex -5 -7.916982124358353 -10.675961763870275
      vertex -5 -7.916982124358353 -11.324038236129725
    endloop
  endfacet
  facet normal -1 0 0
    outer loop
      vertex -5 -8.051724799485024 -10.042047317437664
      vertex -5 -7.916982124358353 -11.324038236129725
      vertex -5 -8.051724799485024 -11.957952682562336
    endloop
  endfacet
  facet normal -1 0 0
    outer loop
      vertex -5 -9.177865717893333 -8.492047317437663
      vertex -5 -8.696251041020078 -13.07430487971246
      vertex -5 -9.177865717893333 -13.507952682562337
    endloop
  endfacet
  facet normal -1 0 0
    outer loop
      vertex -5 -8.696251041020078 -8.92569512028754
      vertex -5 -8.31532124826824 -12.55
      vertex -5 -8.696251041020078 -13.07430487971246
    endloop
  endfacet
  facet normal 1.2627615735344934e-18 0.9781476007338054 -0.20791169081776062
    outer loop
      vertex -5 -13.948275200514976 -10.042047317437664
      vertex -5 -14.083017875641648 -10.675961763870275
      vertex -13 -14.083017875641648 -10.675961763870275
    endloop
  endfacet
  facet normal -4.984241188313337e-19 0.9135454576426012 -0.40673664307579965
    outer loop
      vertex -5 -13.68467875173176 -9.45
      vertex -5 -13.948275200514976 -10.042047317437664
      vertex -13 -13.948275200514976 -10.042047317437664
    endloop
  endfacet
  facet normal 0 1 0
    outer loop
      vertex -5 -14.083017875641648 -10.675961763870275
      vertex -5 -14.083017875641648 -11.324038236129725
      vertex -13 -14.083017875641648 -11.324038236129725
    endloop
  endfacet
  facet normal -1.2627615735344934e-18 0.9781476007338054 0.20791169081776062
    outer loop
      vertex -5 -14.083017875641648 -11.324038236129725
      vertex -5 -13.948275200514976 -11.957952682562336
      vertex -13 -13.948275200514976 -11.957952682562336
    endloop
  endfacet
  facet normal 4.984241188313337e-19 0.9135454576426012 0.40673664307579965
    outer loop
      vertex -5 -13.948275200514976 -11.957952682562336
      vertex -5 -13.68467875173176 -12.55
      vertex -13 -13.68467875173176 -12.55
    endloop
  endfacet
  facet normal -7.421867693796019e-19 0.8090169943749472 -0.5877852522924732
    outer loop
      vertex -5 -13.303748958979922 -8.92569512028754
      vertex -5 -13.68467875173176 -9.45
      vertex -13 -13.68467875173176 -9.45
    endloop
  endfacet
  facet normal 0 0.6691306063588583 -0.7431448254773942
    outer loop
      vertex -5 -13.303748958979922 -8.92569512028754
      vertex -13 -13.303748958979922 -8.92569512028754
      vertex -5 -12.822134282106667 -8.492047317437663
    endloop
  endfacet
  facet normal 0 0.4999999999999995 -0.8660254037844389
    outer loop
      vertex -5 -12.822134282106667 -8.492047317437663
      vertex -13 -12.822134282106667 -8.492047317437663
      vertex -5 -12.260883593534981 -8.168009081307938
    endloop
  endfacet
  facet normal 0 0.3090169943749487 -0.9510565162951532
    outer loop
      vertex -5 -12.260883593534981 -8.168009081307938
      vertex -13 -12.260883593534981 -8.168009081307938
      vertex -5 -11.644526241535054 -7.967742437725202
    endloop
  endfacet
  facet normal 7.421867693796019e-19 0.8090169943749472 0.5877852522924732
    outer loop
      vertex -5 -13.68467875173176 -12.55
      vertex -5 -13.303748958979922 -13.07430487971246
      vertex -13 -13.303748958979922 -13.07430487971246
    endloop
  endfacet
  facet normal -1.21250200740272e-18 0.6691306063588583 0.7431448254773942
    outer loop
      vertex -5 -13.303748958979922 -13.07430487971246
      vertex -5 -12.822134282106667 -13.507952682562337
      vertex -13 -12.822134282106667 -13.507952682562337
    endloop
  endfacet
  facet normal 2.5511462536671378e-18 0.4999999999999995 0.8660254037844389
    outer loop
      vertex -5 -12.822134282106667 -13.507952682562337
      vertex -5 -12.260883593534981 -13.831990918692062
      vertex -13 -12.260883593534981 -13.831990918692062
    endloop
  endfacet
  facet normal -5.06361672498754e-19 0.3090169943749474 0.9510565162951535
    outer loop
      vertex -5 -12.260883593534981 -13.831990918692062
      vertex -5 -11.644526241535054 -14.032257562274797
      vertex -13 -11.644526241535054 -14.032257562274797
    endloop
  endfacet
  facet normal 0 0.9135454576426012 -0.40673664307579965
    outer loop
      vertex -5 -13.68467875173176 -9.45
      vertex -13 -13.948275200514976 -10.042047317437664
      vertex -13 -13.68467875173176 -9.45
    endloop
  endfacet
  facet normal 0 0.9781476007338054 -0.20791169081776062
    outer loop
      vertex -5 -13.948275200514976 -10.042047317437664
      vertex -13 -14.083017875641648 -10.675961763870275
      vertex -13 -13.948275200514976 -10.042047317437664
    endloop
  endfacet
  facet normal 0 1 0
    outer loop
      vertex -5 -14.083017875641648 -10.675961763870275
      vertex -13 -14.083017875641648 -11.324038236129725
      vertex -13 -14.083017875641648 -10.675961763870275
    endloop
  endfacet
  facet normal 0 0.9781476007338054 0.20791169081776062
    outer loop
      vertex -5 -14.083017875641648 -11.324038236129725
      vertex -13 -13.948275200514976 -11.957952682562336
      vertex -13 -14.083017875641648 -11.324038236129725
    endloop
  endfacet
  facet normal 0 0.9135454576426012 0.40673664307579965
    outer loop
      vertex -5 -13.948275200514976 -11.957952682562336
      vertex -13 -13.68467875173176 -12.55
      vertex -13 -13.948275200514976 -11.957952682562336
    endloop
  endfacet
  facet normal 0 0.8090169943749472 -0.5877852522924732
    outer loop
      vertex -5 -13.303748958979922 -8.92569512028754
      vertex -13 -13.68467875173176 -9.45
      vertex -13 -13.303748958979922 -8.92569512028754
    endloop
  endfacet
  facet normal 0 0.6691306063588583 -0.7431448254773942
    outer loop
      vertex -5 -12.822134282106667 -8.492047317437663
      vertex -13 -13.303748958979922 -8.92569512028754
      vertex -13 -12.822134282106667 -8.492047317437663
    endloop
  endfacet
  facet normal 0 0.4999999999999995 -0.8660254037844389
    outer loop
      vertex -5 -12.260883593534981 -8.168009081307938
      vertex -13 -12.822134282106667 -8.492047317437663
      vertex -13 -12.260883593534981 -8.168009081307938
    endloop
  endfacet
  facet normal 0 0.3090169943749487 -0.9510565162951532
    outer loop
      vertex -5 -11.644526241535054 -7.967742437725202
      vertex -13 -12.260883593534981 -8.168009081307938
      vertex -13 -11.644526241535054 -7.967742437725202
    endloop
  endfacet
  facet normal 0 0.8090169943749472 0.5877852522924732
    outer loop
      vertex -5 -13.68467875173176 -12.55
      vertex -13 -13.303748958979922 -13.07430487971246
      vertex -13 -13.68467875173176 -12.55
    endloop
  endfacet
  facet normal 0 0.6691306063588583 0.7431448254773942
    outer loop
      vertex -5 -13.303748958979922 -13.07430487971246
      vertex -13 -12.822134282106667 -13.507952682562337
      vertex -13 -13.303748958979922 -13.07430487971246
    endloop
  endfacet
  facet normal 0 0.4999999999999995 0.8660254037844389
    outer loop
      vertex -5 -12.822134282106667 -13.507952682562337
      vertex -13 -12.260883593534981 -13.831990918692062
      vertex -13 -12.822134282106667 -13.507952682562337
    endloop
  endfacet
  facet normal 0 0.3090169943749474 0.9510565162951535
    outer loop
      vertex -5 -12.260883593534981 -13.831990918692062
      vertex -13 -11.644526241535054 -14.032257562274797
      vertex -13 -12.260883593534981 -13.831990918692062
    endloop
  endfacet
  facet normal 0 0.10452846326765239 -0.9945218953682734
    outer loop
      vertex -5 -11.644526241535054 -7.967742437725202
      vertex -13 -11.644526241535054 -7.967742437725202
      vertex -5 -11 -7.9
    endloop
  endfacet
  facet normal 0 -0.10452846326765239 -0.9945218953682734
    outer loop
      vertex -5 -11 -7.9
      vertex -13 -11 -7.9
      vertex -5 -10.355473758464946 -7.967742437725202
    endloop
  endfacet
  facet normal 0 0.10452846326765239 -0.9945218953682734
    outer loop
      vertex -5 -11 -7.9
      vertex -13 -11.644526241535054 -7.967742437725202
      vertex -13 -11 -7.9
    endloop
  endfacet
  facet normal 0 -0.10452846326765239 -0.9945218953682734
    outer loop
      vertex -5 -10.355473758464946 -7.967742437725202
      vertex -13 -11 -7.9
      vertex -13 -10.355473758464946 -7.967742437725202
    endloop
  endfacet
  facet normal 0 -0.3090169943749487 -0.9510565162951532
    outer loop
      vertex -5 -10.355473758464946 -7.967742437725202
      vertex -13 -10.355473758464946 -7.967742437725202
      vertex -5 -9.739116406465019 -8.168009081307938
    endloop
  endfacet
  facet normal 0 -0.4999999999999995 -0.8660254037844389
    outer loop
      vertex -5 -9.739116406465019 -8.168009081307938
      vertex -13 -9.739116406465019 -8.168009081307938
      vertex -5 -9.177865717893333 -8.492047317437663
    endloop
  endfacet
  facet normal 6.066862195752577e-19 0.10452846326765373 0.9945218953682733
    outer loop
      vertex -5 -11.644526241535054 -14.032257562274797
      vertex -5 -11 -14.1
      vertex -13 -11 -14.1
    endloop
  endfacet
  facet normal -6.066862195752577e-19 -0.10452846326765373 0.9945218953682733
    outer loop
      vertex -5 -11 -14.1
      vertex -5 -10.355473758464946 -14.032257562274797
      vertex -13 -10.355473758464946 -14.032257562274797
    endloop
  endfacet
  facet normal 5.06361672498754e-19 -0.3090169943749474 0.9510565162951535
    outer loop
      vertex -5 -10.355473758464946 -14.032257562274797
      vertex -5 -9.739116406465019 -13.831990918692062
      vertex -13 -9.739116406465019 -13.831990918692062
    endloop
  endfacet
  facet normal -2.5511462536671378e-18 -0.4999999999999995 0.8660254037844389
    outer loop
      vertex -5 -9.739116406465019 -13.831990918692062
      vertex -5 -9.177865717893333 -13.507952682562337
      vertex -13 -9.177865717893333 -13.507952682562337
    endloop
  endfacet
  facet normal 0 -0.6691306063588583 -0.7431448254773942
    outer loop
      vertex -5 -9.177865717893333 -8.492047317437663
      vertex -13 -9.177865717893333 -8.492047317437663
      vertex -5 -8.696251041020078 -8.92569512028754
    endloop
  endfacet
  facet normal 0 -0.8090169943749472 -0.5877852522924732
    outer loop
      vertex -5 -8.696251041020078 -8.92569512028754
      vertex -13 -8.696251041020078 -8.92569512028754
      vertex -5 -8.31532124826824 -9.45
    endloop
  endfacet
  facet normal 0 -0.9135454576426012 -0.40673664307579965
    outer loop
      vertex -5 -8.31532124826824 -9.45
      vertex -13 -8.31532124826824 -9.45
      vertex -5 -8.051724799485024 -10.042047317437664
    endloop
  endfacet
  facet normal 0 -0.9781476007338057 -0.20791169081775934
    outer loop
      vertex -5 -8.051724799485024 -10.042047317437664
      vertex -13 -8.051724799485024 -10.042047317437664
      vertex -5 -7.916982124358353 -10.675961763870275
    endloop
  endfacet
  facet normal 0 -1 0
    outer loop
      vertex -5 -7.916982124358353 -10.675961763870275
      vertex -13 -7.916982124358353 -10.675961763870275
      vertex -5 -7.916982124358353 -11.324038236129725
    endloop
  endfacet
  facet normal 0 -0.6691306063588583 0.7431448254773942
    outer loop
      vertex -5 -8.696251041020078 -13.07430487971246
      vertex -13 -8.696251041020078 -13.07430487971246
      vertex -5 -9.177865717893333 -13.507952682562337
    endloop
  endfacet
  facet normal 0 -0.9135454576426012 0.40673664307579965
    outer loop
      vertex -5 -8.051724799485024 -11.957952682562336
      vertex -13 -8.051724799485024 -11.957952682562336
      vertex -5 -8.31532124826824 -12.55
    endloop
  endfacet
  facet normal 0 -0.8090169943749472 0.5877852522924732
    outer loop
      vertex -5 -8.31532124826824 -12.55
      vertex -13 -8.31532124826824 -12.55
      vertex -5 -8.696251041020078 -13.07430487971246
    endloop
  endfacet
  facet normal 0 -0.9781476007338057 0.20791169081775934
    outer loop
      vertex -5 -7.916982124358353 -11.324038236129725
      vertex -13 -7.916982124358353 -11.324038236129725
      vertex -5 -8.051724799485024 -11.957952682562336
    endloop
  endfacet
  facet normal 0 -0.3090169943749487 -0.9510565162951532
    outer loop
      vertex -5 -9.739116406465019 -8.168009081307938
      vertex -13 -10.355473758464946 -7.967742437725202
      vertex -13 -9.739116406465019 -8.168009081307938
    endloop
  endfacet
  facet normal 0 -0.4999999999999995 -0.8660254037844389
    outer loop
      vertex -5 -9.177865717893333 -8.492047317437663
      vertex -13 -9.739116406465019 -8.168009081307938
      vertex -13 -9.177865717893333 -8.492047317437663
    endloop
  endfacet
  facet normal 0 0.10452846326765373 0.9945218953682733
    outer loop
      vertex -5 -11.644526241535054 -14.032257562274797
      vertex -13 -11 -14.1
      vertex -13 -11.644526241535054 -14.032257562274797
    endloop
  endfacet
  facet normal 0 -0.10452846326765373 0.9945218953682733
    outer loop
      vertex -5 -11 -14.1
      vertex -13 -10.355473758464946 -14.032257562274797
      vertex -13 -11 -14.1
    endloop
  endfacet
  facet normal 0 -0.3090169943749474 0.9510565162951535
    outer loop
      vertex -5 -10.355473758464946 -14.032257562274797
      vertex -13 -9.739116406465019 -13.831990918692062
      vertex -13 -10.355473758464946 -14.032257562274797
    endloop
  endfacet
  facet normal 0 -0.4999999999999995 0.8660254037844389
    outer loop
      vertex -5 -9.739116406465019 -13.831990918692062
      vertex -13 -9.177865717893333 -13.507952682562337
      vertex -13 -9.739116406465019 -13.831990918692062
    endloop
  endfacet
  facet normal 0 -0.6691306063588583 -0.7431448254773942
    outer loop
      vertex -5 -8.696251041020078 -8.92569512028754
      vertex -13 -9.177865717893333 -8.492047317437663
      vertex -13 -8.696251041020078 -8.92569512028754
    endloop
  endfacet
  facet normal 0 -0.8090169943749472 -0.5877852522924732
    outer loop
      vertex -5 -8.31532124826824 -9.45
      vertex -13 -8.696251041020078 -8.92569512028754
      vertex -13 -8.31532124826824 -9.45
    endloop
  endfacet
  facet normal 0 -0.9135454576426012 -0.40673664307579965
    outer loop
      vertex -5 -8.051724799485024 -10.042047317437664
      vertex -13 -8.31532124826824 -9.45
      vertex -13 -8.051724799485024 -10.042047317437664
    endloop
  endfacet
  facet normal 0 -0.9781476007338057 -0.20791169081775934
    outer loop
      vertex -5 -7.916982124358353 -10.675961763870275
      vertex -13 -8.051724799485024 -10.042047317437664
      vertex -13 -7.916982124358353 -10.675961763870275
    endloop
  endfacet
  facet normal 0 -1 0
    outer loop
      vertex -5 -7.916982124358353 -11.324038236129725
      vertex -13 -7.916982124358353 -10.675961763870275
      vertex -13 -7.916982124358353 -11.324038236129725
    endloop
  endfacet
  facet normal 0 -0.9135454576426012 0.40673664307579965
    outer loop
      vertex -5 -8.31532124826824 -12.55
      vertex -13 -8.051724799485024 -11.957952682562336
      vertex -13 -8.31532124826824 -12.55
    endloop
  endfacet
  facet normal 0 -0.8090169943749472 0.5877852522924732
    outer loop
      vertex -5 -8.696251041020078 -13.07430487971246
      vertex -13 -8.31532124826824 -12.55
      vertex -13 -8.696251041020078 -13.07430487971246
    endloop
  endfacet
  facet normal 0 -0.6691306063588583 0.7431448254773942
    outer loop
      vertex -5 -9.177865717893333 -13.507952682562337
      vertex -13 -8.696251041020078 -13.07430487971246
      vertex -13 -9.177865717893333 -13.507952682562337
    endloop
  endfacet
  facet normal 0 -0.9781476007338057 0.20791169081775934
    outer loop
      vertex -5 -8.051724799485024 -11.957952682562336
      vertex -13 -7.916982124358353 -11.324038236129725
      vertex -13 -8.051724799485024 -11.957952682562336
    endloop
  endfacet
  facet normal 0.5000000000000002 -0.7071067811865474 0.5000000000000002
    outer loop
      vertex -7.514718625761433 -16 -1
      vertex -2.7123124994839545 -16 -5.8024061262774795
      vertex -6.742009708806898 -15.453612284938135 -1
    endloop
  endfacet
  facet normal -1.7571401037609502e-16 0.8660254037844388 0.4999999999999999
    outer loop
      vertex -0.9726590731180615 -7 -7.875644347017858
      vertex -3.5 -7 -7.875644347017859
      vertex -6.742009708806898 -10.969655114602888 -1
    endloop
  endfacet
  facet normal 0 0.8660254037844387 0.49999999999999994
    outer loop
      vertex -13 -10.969655114602888 -1
      vertex -6.742009708806898 -10.969655114602888 -1
      vertex -3.5 -7 -7.875644347017859
    endloop
  endfacet
  facet normal 2.4030045370213668e-17 0.8660254037844388 0.5
    outer loop
      vertex -13 -10.969655114602888 -1
      vertex -3.5 -7 -7.875644347017859
      vertex -13 -7 -7.875644347017858
    endloop
  endfacet
  facet normal 0.7660444431189779 0 0.6427876096865395
    outer loop
      vertex -1 -16 -7.843060699181453
      vertex -1 -12.88873016277919 -7.843060699181453
      vertex -2.7123124994839545 -16 -5.8024061262774795
    endloop
  endfacet
  facet normal 0.766044443118978 4.1762375821630893e-17 0.6427876096865394
    outer loop
      vertex -2.7123124994839545 -16 -5.8024061262774795
      vertex -6.742009708806898 -10.969655114602888 -1
      vertex -6.742009708806898 -15.453612284938135 -1
    endloop
  endfacet
  facet normal 0.766044443118978 -7.975094859125074e-17 0.6427876096865394
    outer loop
      vertex -2.7123124994839545 -16 -5.8024061262774795
      vertex -1 -12.88873016277919 -7.843060699181453
      vertex -6.742009708806898 -10.969655114602888 -1
    endloop
  endfacet
  facet normal 0.7660444431189785 -4.590324840901619e-16 0.6427876096865388
    outer loop
      vertex -1 -16 -7.843060699181453
      vertex 0.5093333532153306 -14.49066664678467 -9.641814145298088
      vertex 0.5093333532153306 -14.39806351599452 -9.641814145298088
    endloop
  endfacet
  facet normal -0.6427876096865438 -1.2922311463428594e-17 0.766044443118974
    outer loop
      vertex 0.5556349186104048 -14.444365081389595 -9.60296251885215
      vertex 0.5093333532153306 -14.39806351599452 -9.641814145298088
      vertex 0.5093333532153306 -14.49066664678467 -9.641814145298088
    endloop
  endfacet
  facet normal 0.7660444431189781 0 0.6427876096865394
    outer loop
      vertex -1 -16 -7.843060699181453
      vertex 0.5093333532153306 -14.39806351599452 -9.641814145298088
      vertex -1 -12.88873016277919 -7.843060699181453
    endloop
  endfacet
  facet normal 0.7660444431189779 0 0.6427876096865394
    outer loop
      vertex -1 -12.88873016277919 -7.843060699181453
      vertex -1 -8 -7.843060699181453
      vertex -6.742009708806898 -10.969655114602888 -1
    endloop
  endfacet
  facet normal 0.766044443118978 -6.399718548563962e-17 0.6427876096865394
    outer loop
      vertex -1 -8 -7.843060699181453
      vertex -0.9726590731180615 -7 -7.875644347017858
      vertex -6.742009708806898 -10.969655114602888 -1
    endloop
  endfacet
  facet normal 0.7660444431189777 -7.136376042177647e-17 0.6427876096865397
    outer loop
      vertex -0.5 -8 -8.438937495478557
      vertex -0.9726590731180615 -7 -7.875644347017858
      vertex -1 -8 -7.843060699181453
    endloop
  endfacet
  facet normal 0.7660444431189777 0 0.6427876096865396
    outer loop
      vertex -0.5 -8 -8.438937495478557
      vertex -0.5 -7 -8.438937495478557
      vertex -0.9726590731180615 -7 -7.875644347017858
    endloop
  endfacet
endsolid OpenSCAD_Model
