solid OpenSCAD_Model
  facet normal -1 0 0
    outer loop
      vertex -13 -7 -15
      vertex -13 -7.91698 -11.324
      vertex -13 -7 -7.87564
    endloop
  endfacet
  facet normal -1 0 0
    outer loop
      vertex -13 -7 -15
      vertex -13 -8.05172 -11.958
      vertex -13 -7.91698 -11.324
    endloop
  endfacet
  facet normal -1 0 0
    outer loop
      vertex -13 -7 -15
      vertex -13 -8.31532 -12.55
      vertex -13 -8.05172 -11.958
    endloop
  endfacet
  facet normal -1 0 0
    outer loop
      vertex -13 -7 -15
      vertex -13 -8.69625 -13.0743
      vertex -13 -8.31532 -12.55
    endloop
  endfacet
  facet normal -1 0 0
    outer loop
      vertex -13 -7 -15
      vertex -13 -9.17787 -13.508
      vertex -13 -8.69625 -13.0743
    endloop
  endfacet
  facet normal -1 0 0
    outer loop
      vertex -13 -7 -15
      vertex -13 -9.73912 -13.832
      vertex -13 -9.17787 -13.508
    endloop
  endfacet
  facet normal -1 0 0
    outer loop
      vertex -13 -7 -15
      vertex -13 -10.3555 -14.0323
      vertex -13 -9.73912 -13.832
    endloop
  endfacet
  facet normal -1 0 0
    outer loop
      vertex -13 -7 -15
      vertex -13 -11 -14.1
      vertex -13 -10.3555 -14.0323
    endloop
  endfacet
  facet normal -1 0 0
    outer loop
      vertex -13 -16 -15
      vertex -13 -11 -14.1
      vertex -13 -7 -15
    endloop
  endfacet
  facet normal -1 -0 0
    outer loop
      vertex -13 -14.083 -11.324
      vertex -13 -16 -15
      vertex -13 -14.083 -10.676
    endloop
  endfacet
  facet normal -1 -0 0
    outer loop
      vertex -13 -13.9483 -11.958
      vertex -13 -16 -15
      vertex -13 -14.083 -11.324
    endloop
  endfacet
  facet normal -1 -0 0
    outer loop
      vertex -13 -13.6847 -12.55
      vertex -13 -16 -15
      vertex -13 -13.9483 -11.958
    endloop
  endfacet
  facet normal -1 -0 0
    outer loop
      vertex -13 -13.3037 -13.0743
      vertex -13 -16 -15
      vertex -13 -13.6847 -12.55
    endloop
  endfacet
  facet normal -1 -0 0
    outer loop
      vertex -13 -12.8221 -13.508
      vertex -13 -16 -15
      vertex -13 -13.3037 -13.0743
    endloop
  endfacet
  facet normal -1 -0 0
    outer loop
      vertex -13 -12.2609 -13.832
      vertex -13 -16 -15
      vertex -13 -12.8221 -13.508
    endloop
  endfacet
  facet normal -1 -0 0
    outer loop
      vertex -13 -11.6445 -14.0323
      vertex -13 -16 -15
      vertex -13 -12.2609 -13.832
    endloop
  endfacet
  facet normal -1 -0 0
    outer loop
      vertex -13 -11 -14.1
      vertex -13 -16 -15
      vertex -13 -11.6445 -14.0323
    endloop
  endfacet
  facet normal -1 0 0
    outer loop
      vertex -13 -7.91698 -10.676
      vertex -13 -7 -7.87564
      vertex -13 -7.91698 -11.324
    endloop
  endfacet
  facet normal -1 0 0
    outer loop
      vertex -13 -8.05172 -10.042
      vertex -13 -7 -7.87564
      vertex -13 -7.91698 -10.676
    endloop
  endfacet
  facet normal -1 0 0
    outer loop
      vertex -13 -8.31532 -9.45
      vertex -13 -7 -7.87564
      vertex -13 -8.05172 -10.042
    endloop
  endfacet
  facet normal -1 0 0
    outer loop
      vertex -13 -8.69625 -8.92569
      vertex -13 -7 -7.87564
      vertex -13 -8.31532 -9.45
    endloop
  endfacet
  facet normal -1 0 0
    outer loop
      vertex -13 -9.17787 -8.49205
      vertex -13 -7 -7.87564
      vertex -13 -8.69625 -8.92569
    endloop
  endfacet
  facet normal -1 0 0
    outer loop
      vertex -13 -9.73912 -8.16801
      vertex -13 -7 -7.87564
      vertex -13 -9.17787 -8.49205
    endloop
  endfacet
  facet normal -1 0 0
    outer loop
      vertex -13 -10.9697 -1
      vertex -13 -9.73912 -8.16801
      vertex -13 -10.3555 -7.96774
    endloop
  endfacet
  facet normal -1 0 0
    outer loop
      vertex -13 -9.73912 -8.16801
      vertex -13 -10.9697 -1
      vertex -13 -7 -7.87564
    endloop
  endfacet
  facet normal -1 0 0
    outer loop
      vertex -13 -11 -7.9
      vertex -13 -10.9697 -1
      vertex -13 -10.3555 -7.96774
    endloop
  endfacet
  facet normal -1 0 0
    outer loop
      vertex -13 -11.6445 -7.96774
      vertex -13 -10.9697 -1
      vertex -13 -11 -7.9
    endloop
  endfacet
  facet normal -1 0 0
    outer loop
      vertex -13 -12.2609 -8.16801
      vertex -13 -10.9697 -1
      vertex -13 -11.6445 -7.96774
    endloop
  endfacet
  facet normal -1 0 0
    outer loop
      vertex -13 -16 -1
      vertex -13 -12.2609 -8.16801
      vertex -13 -12.8221 -8.49205
    endloop
  endfacet
  facet normal -1 0 0
    outer loop
      vertex -13 -16 -1
      vertex -13 -12.8221 -8.49205
      vertex -13 -13.3037 -8.92569
    endloop
  endfacet
  facet normal -1 0 0
    outer loop
      vertex -13 -16 -1
      vertex -13 -13.3037 -8.92569
      vertex -13 -13.6847 -9.45
    endloop
  endfacet
  facet normal -1 0 0
    outer loop
      vertex -13 -16 -1
      vertex -13 -13.6847 -9.45
      vertex -13 -13.9483 -10.042
    endloop
  endfacet
  facet normal -1 0 0
    outer loop
      vertex -13 -16 -1
      vertex -13 -14.083 -10.676
      vertex -13 -16 -15
    endloop
  endfacet
  facet normal -1 0 0
    outer loop
      vertex -13 -14.083 -10.676
      vertex -13 -16 -1
      vertex -13 -13.9483 -10.042
    endloop
  endfacet
  facet normal -1 0 0
    outer loop
      vertex -13 -12.2609 -8.16801
      vertex -13 -16 -1
      vertex -13 -10.9697 -1
    endloop
  endfacet
  facet normal 0 0 -1
    outer loop
      vertex -1 -16 -15
      vertex -1 -12.8887 -15
      vertex 0.555634 -14.4444 -15
    endloop
  endfacet
  facet normal 0 0 -1
    outer loop
      vertex -13 -16 -15
      vertex -1 -12.8887 -15
      vertex -1 -16 -15
    endloop
  endfacet
  facet normal 0 0 -1
    outer loop
      vertex -13 -7 -15
      vertex -1 -12.8887 -15
      vertex -13 -16 -15
    endloop
  endfacet
  facet normal 0 0 -1
    outer loop
      vertex -1 -8 -15
      vertex -0.5 -7 -15
      vertex -0.5 -8 -15
    endloop
  endfacet
  facet normal 0 0 -1
    outer loop
      vertex -1 -12.8887 -15
      vertex -13 -7 -15
      vertex -1 -8 -15
    endloop
  endfacet
  facet normal 0 0 -1
    outer loop
      vertex -1 -8 -15
      vertex -13 -7 -15
      vertex -0.5 -7 -15
    endloop
  endfacet
  facet normal 0 0 1
    outer loop
      vertex -6.74201 -10.9697 -1
      vertex -7.51472 -16 -1
      vertex -6.74201 -15.4536 -1
    endloop
  endfacet
  facet normal -0 0 1
    outer loop
      vertex -13 -10.9697 -1
      vertex -7.51472 -16 -1
      vertex -6.74201 -10.9697 -1
    endloop
  endfacet
  facet normal 0 0 1
    outer loop
      vertex -7.51472 -16 -1
      vertex -13 -10.9697 -1
      vertex -13 -16 -1
    endloop
  endfacet
  facet normal 1 0 0
    outer loop
      vertex -1 -9.35904 -11.1725
      vertex -1 -8 -7.84306
      vertex -1 -9.35904 -10.8275
    endloop
  endfacet
  facet normal 1 0 0
    outer loop
      vertex -1 -8 -7.84306
      vertex -1 -9.43076 -10.4901
      vertex -1 -9.35904 -10.8275
    endloop
  endfacet
  facet normal 1 0 0
    outer loop
      vertex -1 -8 -7.84306
      vertex -1 -9.57106 -10.175
      vertex -1 -9.43076 -10.4901
    endloop
  endfacet
  facet normal 1 0 0
    outer loop
      vertex -1 -8 -7.84306
      vertex -1 -9.77381 -9.89593
      vertex -1 -9.57106 -10.175
    endloop
  endfacet
  facet normal 1 0 0
    outer loop
      vertex -1 -8 -7.84306
      vertex -1 -10.0302 -9.66512
      vertex -1 -9.77381 -9.89593
    endloop
  endfacet
  facet normal 1 0 0
    outer loop
      vertex -1 -8 -7.84306
      vertex -1 -10.3289 -9.49265
      vertex -1 -10.0302 -9.66512
    endloop
  endfacet
  facet normal 1 0 0
    outer loop
      vertex -1 -8 -7.84306
      vertex -1 -10.6569 -9.38606
      vertex -1 -10.3289 -9.49265
    endloop
  endfacet
  facet normal 1 -0 0
    outer loop
      vertex -1 -12.8887 -7.84306
      vertex -1 -10.6569 -9.38606
      vertex -1 -8 -7.84306
    endloop
  endfacet
  facet normal 1 0 0
    outer loop
      vertex -1 -10.6569 -9.38606
      vertex -1 -12.8887 -7.84306
      vertex -1 -11 -9.35
    endloop
  endfacet
  facet normal 1 0 0
    outer loop
      vertex -1 -11 -9.35
      vertex -1 -12.8887 -7.84306
      vertex -1 -11.3431 -9.38606
    endloop
  endfacet
  facet normal 1 0 0
    outer loop
      vertex -1 -12.641 -10.8275
      vertex -1 -12.8887 -7.84306
      vertex -1 -12.641 -11.1725
    endloop
  endfacet
  facet normal 1 0 0
    outer loop
      vertex -1 -12.5692 -10.4901
      vertex -1 -12.8887 -7.84306
      vertex -1 -12.641 -10.8275
    endloop
  endfacet
  facet normal 1 0 0
    outer loop
      vertex -1 -12.4289 -10.175
      vertex -1 -12.8887 -7.84306
      vertex -1 -12.5692 -10.4901
    endloop
  endfacet
  facet normal 1 0 0
    outer loop
      vertex -1 -12.2262 -9.89593
      vertex -1 -12.8887 -7.84306
      vertex -1 -12.4289 -10.175
    endloop
  endfacet
  facet normal 1 0 0
    outer loop
      vertex -1 -11.9698 -9.66512
      vertex -1 -12.8887 -7.84306
      vertex -1 -12.2262 -9.89593
    endloop
  endfacet
  facet normal 1 0 0
    outer loop
      vertex -1 -11.6711 -9.49265
      vertex -1 -12.8887 -7.84306
      vertex -1 -11.9698 -9.66512
    endloop
  endfacet
  facet normal 1 0 0
    outer loop
      vertex -1 -11.3431 -9.38606
      vertex -1 -12.8887 -7.84306
      vertex -1 -11.6711 -9.49265
    endloop
  endfacet
  facet normal 1 0 0
    outer loop
      vertex -1 -8 -7.84306
      vertex -1 -9.35904 -11.1725
      vertex -1 -8 -15
    endloop
  endfacet
  facet normal 1 -0 0
    outer loop
      vertex -1 -9.43076 -11.5099
      vertex -1 -8 -15
      vertex -1 -9.35904 -11.1725
    endloop
  endfacet
  facet normal 1 -0 0
    outer loop
      vertex -1 -9.57106 -11.825
      vertex -1 -8 -15
      vertex -1 -9.43076 -11.5099
    endloop
  endfacet
  facet normal 1 -0 0
    outer loop
      vertex -1 -9.77381 -12.1041
      vertex -1 -8 -15
      vertex -1 -9.57106 -11.825
    endloop
  endfacet
  facet normal 1 -0 0
    outer loop
      vertex -1 -10.0302 -12.3349
      vertex -1 -8 -15
      vertex -1 -9.77381 -12.1041
    endloop
  endfacet
  facet normal 1 -0 0
    outer loop
      vertex -1 -10.3289 -12.5073
      vertex -1 -8 -15
      vertex -1 -10.0302 -12.3349
    endloop
  endfacet
  facet normal 1 -0 0
    outer loop
      vertex -1 -10.6569 -12.6139
      vertex -1 -8 -15
      vertex -1 -10.3289 -12.5073
    endloop
  endfacet
  facet normal 1 0 0
    outer loop
      vertex -1 -12.8887 -15
      vertex -1 -10.6569 -12.6139
      vertex -1 -11 -12.65
    endloop
  endfacet
  facet normal 1 0 0
    outer loop
      vertex -1 -12.8887 -15
      vertex -1 -11 -12.65
      vertex -1 -11.3431 -12.6139
    endloop
  endfacet
  facet normal 1 0 0
    outer loop
      vertex -1 -12.8887 -15
      vertex -1 -11.3431 -12.6139
      vertex -1 -11.6711 -12.5073
    endloop
  endfacet
  facet normal 1 0 0
    outer loop
      vertex -1 -12.8887 -15
      vertex -1 -11.6711 -12.5073
      vertex -1 -11.9698 -12.3349
    endloop
  endfacet
  facet normal 1 0 0
    outer loop
      vertex -1 -10.6569 -12.6139
      vertex -1 -12.8887 -15
      vertex -1 -8 -15
    endloop
  endfacet
  facet normal 1 0 0
    outer loop
      vertex -1 -12.2262 -12.1041
      vertex -1 -12.8887 -15
      vertex -1 -11.9698 -12.3349
    endloop
  endfacet
  facet normal 1 0 0
    outer loop
      vertex -1 -12.4289 -11.825
      vertex -1 -12.8887 -15
      vertex -1 -12.2262 -12.1041
    endloop
  endfacet
  facet normal 1 0 0
    outer loop
      vertex -1 -12.5692 -11.5099
      vertex -1 -12.8887 -15
      vertex -1 -12.4289 -11.825
    endloop
  endfacet
  facet normal 1 0 0
    outer loop
      vertex -1 -12.641 -11.1725
      vertex -1 -12.8887 -15
      vertex -1 -12.5692 -11.5099
    endloop
  endfacet
  facet normal 1 0 0
    outer loop
      vertex -1 -12.8887 -15
      vertex -1 -12.641 -11.1725
      vertex -1 -12.8887 -7.84306
    endloop
  endfacet
  facet normal 0 1 -0
    outer loop
      vertex -0.5 -7 -15
      vertex -0.972661 -7 -7.87564
      vertex -0.5 -7 -8.43894
    endloop
  endfacet
  facet normal 0 1 0
    outer loop
      vertex -0.972661 -7 -7.87564
      vertex -0.5 -7 -15
      vertex -13 -7 -15
    endloop
  endfacet
  facet normal 0 1 0
    outer loop
      vertex -0.972661 -7 -7.87564
      vertex -13 -7 -15
      vertex -13 -7 -7.87564
    endloop
  endfacet
  facet normal 0 -1 0
    outer loop
      vertex -13 -16 -15
      vertex -7.51472 -16 -1
      vertex -13 -16 -1
    endloop
  endfacet
  facet normal 0 -1 -0
    outer loop
      vertex -7.51472 -16 -1
      vertex -13 -16 -15
      vertex -2.71231 -16 -5.80241
    endloop
  endfacet
  facet normal 0 -1 -0
    outer loop
      vertex -2.71231 -16 -5.80241
      vertex -13 -16 -15
      vertex -1 -16 -7.84306
    endloop
  endfacet
  facet normal 0 -1 -0
    outer loop
      vertex -1 -16 -7.84306
      vertex -13 -16 -15
      vertex -1 -16 -15
    endloop
  endfacet
  facet normal 0.707099 -0.707114 0
    outer loop
      vertex 0.509333 -14.4907 -9.64181
      vertex 0.555634 -14.4444 -15
      vertex 0.555634 -14.4444 -9.60296
    endloop
  endfacet
  facet normal 0.707099 -0.707115 0
    outer loop
      vertex -1 -16 -15
      vertex 0.509333 -14.4907 -9.64181
      vertex -1 -16 -7.84306
    endloop
  endfacet
  facet normal 0.707099 -0.707115 -1.57789e-09
    outer loop
      vertex 0.509333 -14.4907 -9.64181
      vertex -1 -16 -15
      vertex 0.555634 -14.4444 -15
    endloop
  endfacet
  facet normal 0.707122 0.707091 0
    outer loop
      vertex 0.509333 -14.3981 -9.64181
      vertex -1 -12.8887 -15
      vertex -1 -12.8887 -7.84306
    endloop
  endfacet
  facet normal 0.707099 0.707114 -0
    outer loop
      vertex 0.555634 -14.4444 -15
      vertex 0.509333 -14.3981 -9.64181
      vertex 0.555634 -14.4444 -9.60296
    endloop
  endfacet
  facet normal 0.707122 0.707092 3.91194e-07
    outer loop
      vertex 0.509333 -14.3981 -9.64181
      vertex 0.555634 -14.4444 -15
      vertex -1 -12.8887 -15
    endloop
  endfacet
  facet normal 1 -0 0
    outer loop
      vertex -0.5 -8 -8.43894
      vertex -0.5 -7 -15
      vertex -0.5 -7 -8.43894
    endloop
  endfacet
  facet normal 1 0 0
    outer loop
      vertex -0.5 -7 -15
      vertex -0.5 -8 -8.43894
      vertex -0.5 -8 -15
    endloop
  endfacet
  facet normal 0 -1 0
    outer loop
      vertex -1 -8 -15
      vertex -0.5 -8 -8.43894
      vertex -1 -8 -7.84306
    endloop
  endfacet
  facet normal 0 -1 -0
    outer loop
      vertex -0.5 -8 -8.43894
      vertex -1 -8 -15
      vertex -0.5 -8 -15
    endloop
  endfacet
  facet normal 0 0.913536 0.406757
    outer loop
      vertex -1 -12.4289 -11.825
      vertex -5 -12.5692 -11.5099
      vertex -1 -12.5692 -11.5099
    endloop
  endfacet
  facet normal 0 0.913536 0.406757
    outer loop
      vertex -5 -12.5692 -11.5099
      vertex -1 -12.4289 -11.825
      vertex -5 -12.4289 -11.825
    endloop
  endfacet
  facet normal 0 -0.500034 -0.866006
    outer loop
      vertex -5 -10.3289 -9.49265
      vertex -1 -10.0302 -9.66512
      vertex -1 -10.3289 -9.49265
    endloop
  endfacet
  facet normal -0 -0.500034 -0.866006
    outer loop
      vertex -1 -10.0302 -9.66512
      vertex -5 -10.3289 -9.49265
      vertex -5 -10.0302 -9.66512
    endloop
  endfacet
  facet normal 0 -0.978146 0.207921
    outer loop
      vertex -5 -9.43076 -11.5099
      vertex -1 -9.35904 -11.1725
      vertex -5 -9.35904 -11.1725
    endloop
  endfacet
  facet normal 0 -0.978146 0.207921
    outer loop
      vertex -1 -9.35904 -11.1725
      vertex -5 -9.43076 -11.5099
      vertex -1 -9.43076 -11.5099
    endloop
  endfacet
  facet normal 0 0.809125 0.587637
    outer loop
      vertex -1 -12.2262 -12.1041
      vertex -5 -12.4289 -11.825
      vertex -1 -12.4289 -11.825
    endloop
  endfacet
  facet normal 0 0.809125 0.587637
    outer loop
      vertex -5 -12.4289 -11.825
      vertex -1 -12.2262 -12.1041
      vertex -5 -12.2262 -12.1041
    endloop
  endfacet
  facet normal 0 -0.913536 -0.406757
    outer loop
      vertex -5 -9.43076 -10.4901
      vertex -1 -9.57106 -10.175
      vertex -5 -9.57106 -10.175
    endloop
  endfacet
  facet normal 0 -0.913536 -0.406757
    outer loop
      vertex -1 -9.57106 -10.175
      vertex -5 -9.43076 -10.4901
      vertex -1 -9.43076 -10.4901
    endloop
  endfacet
  facet normal 0 -0.809056 0.587732
    outer loop
      vertex -5 -9.77381 -12.1041
      vertex -1 -9.57106 -11.825
      vertex -5 -9.57106 -11.825
    endloop
  endfacet
  facet normal 0 -0.809056 0.587732
    outer loop
      vertex -1 -9.57106 -11.825
      vertex -5 -9.77381 -12.1041
      vertex -1 -9.77381 -12.1041
    endloop
  endfacet
  facet normal 0 -0.104525 -0.994522
    outer loop
      vertex -5 -11 -9.35
      vertex -1 -10.6569 -9.38606
      vertex -1 -11 -9.35
    endloop
  endfacet
  facet normal -0 -0.104525 -0.994522
    outer loop
      vertex -1 -10.6569 -9.38606
      vertex -5 -11 -9.35
      vertex -5 -10.6569 -9.38606
    endloop
  endfacet
  facet normal 0 -0.669059 -0.743209
    outer loop
      vertex -5 -10.0302 -9.66512
      vertex -1 -9.77381 -9.89593
      vertex -1 -10.0302 -9.66512
    endloop
  endfacet
  facet normal -0 -0.669059 -0.743209
    outer loop
      vertex -1 -9.77381 -9.89593
      vertex -5 -10.0302 -9.66512
      vertex -5 -9.77381 -9.89593
    endloop
  endfacet
  facet normal 0 -1 0
    outer loop
      vertex -5 -9.35904 -11.1725
      vertex -1 -9.35904 -10.8275
      vertex -5 -9.35904 -10.8275
    endloop
  endfacet
  facet normal 0 -1 -0
    outer loop
      vertex -1 -9.35904 -10.8275
      vertex -5 -9.35904 -11.1725
      vertex -1 -9.35904 -11.1725
    endloop
  endfacet
  facet normal 0 0.669045 -0.743222
    outer loop
      vertex -5 -12.2262 -9.89593
      vertex -1 -11.9698 -9.66512
      vertex -1 -12.2262 -9.89593
    endloop
  endfacet
  facet normal 0 0.669045 -0.743222
    outer loop
      vertex -1 -11.9698 -9.66512
      vertex -5 -12.2262 -9.89593
      vertex -5 -11.9698 -9.66512
    endloop
  endfacet
  facet normal 0 0.500034 -0.866006
    outer loop
      vertex -5 -11.9698 -9.66512
      vertex -1 -11.6711 -9.49265
      vertex -1 -11.9698 -9.66512
    endloop
  endfacet
  facet normal 0 0.500034 -0.866006
    outer loop
      vertex -1 -11.6711 -9.49265
      vertex -5 -11.9698 -9.66512
      vertex -5 -11.6711 -9.49265
    endloop
  endfacet
  facet normal 0 -0.978146 -0.207921
    outer loop
      vertex -5 -9.35904 -10.8275
      vertex -1 -9.43076 -10.4901
      vertex -5 -9.43076 -10.4901
    endloop
  endfacet
  facet normal 0 -0.978146 -0.207921
    outer loop
      vertex -1 -9.43076 -10.4901
      vertex -5 -9.35904 -10.8275
      vertex -1 -9.35904 -10.8275
    endloop
  endfacet
  facet normal 0 0.104525 -0.994522
    outer loop
      vertex -5 -11.3431 -9.38606
      vertex -1 -11 -9.35
      vertex -1 -11.3431 -9.38606
    endloop
  endfacet
  facet normal 0 0.104525 -0.994522
    outer loop
      vertex -1 -11 -9.35
      vertex -5 -11.3431 -9.38606
      vertex -5 -11 -9.35
    endloop
  endfacet
  facet normal 0 -0.10464 0.99451
    outer loop
      vertex -5 -10.6569 -12.6139
      vertex -1 -11 -12.65
      vertex -1 -10.6569 -12.6139
    endloop
  endfacet
  facet normal 0 -0.10464 0.99451
    outer loop
      vertex -1 -11 -12.65
      vertex -5 -10.6569 -12.6139
      vertex -5 -11 -12.65
    endloop
  endfacet
  facet normal 0 -0.913536 0.406757
    outer loop
      vertex -5 -9.57106 -11.825
      vertex -1 -9.43076 -11.5099
      vertex -5 -9.43076 -11.5099
    endloop
  endfacet
  facet normal 0 -0.913536 0.406757
    outer loop
      vertex -1 -9.43076 -11.5099
      vertex -5 -9.57106 -11.825
      vertex -1 -9.57106 -11.825
    endloop
  endfacet
  facet normal -0 0.499881 0.866094
    outer loop
      vertex -5 -11.6711 -12.5073
      vertex -1 -11.9698 -12.3349
      vertex -1 -11.6711 -12.5073
    endloop
  endfacet
  facet normal 0 0.499881 0.866094
    outer loop
      vertex -1 -11.9698 -12.3349
      vertex -5 -11.6711 -12.5073
      vertex -5 -11.9698 -12.3349
    endloop
  endfacet
  facet normal 0 0.30906 -0.951043
    outer loop
      vertex -5 -11.6711 -9.49265
      vertex -1 -11.3431 -9.38606
      vertex -1 -11.6711 -9.49265
    endloop
  endfacet
  facet normal 0 0.30906 -0.951043
    outer loop
      vertex -1 -11.3431 -9.38606
      vertex -5 -11.6711 -9.49265
      vertex -5 -11.3431 -9.38606
    endloop
  endfacet
  facet normal -0 0.10464 0.99451
    outer loop
      vertex -5 -11 -12.65
      vertex -1 -11.3431 -12.6139
      vertex -1 -11 -12.65
    endloop
  endfacet
  facet normal 0 0.10464 0.99451
    outer loop
      vertex -1 -11.3431 -12.6139
      vertex -5 -11 -12.65
      vertex -5 -11.3431 -12.6139
    endloop
  endfacet
  facet normal 0 -0.309086 0.951034
    outer loop
      vertex -5 -10.3289 -12.5073
      vertex -1 -10.6569 -12.6139
      vertex -1 -10.3289 -12.5073
    endloop
  endfacet
  facet normal 0 -0.309086 0.951034
    outer loop
      vertex -1 -10.6569 -12.6139
      vertex -5 -10.3289 -12.5073
      vertex -5 -10.6569 -12.6139
    endloop
  endfacet
  facet normal 0 0.978098 0.208143
    outer loop
      vertex -1 -12.5692 -11.5099
      vertex -5 -12.641 -11.1725
      vertex -1 -12.641 -11.1725
    endloop
  endfacet
  facet normal 0 0.978098 0.208143
    outer loop
      vertex -5 -12.641 -11.1725
      vertex -1 -12.5692 -11.5099
      vertex -5 -12.5692 -11.5099
    endloop
  endfacet
  facet normal 0 0.809095 -0.587679
    outer loop
      vertex -1 -12.4289 -10.175
      vertex -5 -12.2262 -9.89593
      vertex -1 -12.2262 -9.89593
    endloop
  endfacet
  facet normal 0 0.809095 -0.587679
    outer loop
      vertex -5 -12.2262 -9.89593
      vertex -1 -12.4289 -10.175
      vertex -5 -12.4289 -10.175
    endloop
  endfacet
  facet normal 0 -0.30906 -0.951043
    outer loop
      vertex -5 -10.6569 -9.38606
      vertex -1 -10.3289 -9.49265
      vertex -1 -10.6569 -9.38606
    endloop
  endfacet
  facet normal -0 -0.30906 -0.951043
    outer loop
      vertex -1 -10.3289 -9.49265
      vertex -5 -10.6569 -9.38606
      vertex -5 -10.3289 -9.49265
    endloop
  endfacet
  facet normal 0 -0.669043 0.743224
    outer loop
      vertex -5 -9.77381 -12.1041
      vertex -1 -10.0302 -12.3349
      vertex -1 -9.77381 -12.1041
    endloop
  endfacet
  facet normal 0 -0.669043 0.743224
    outer loop
      vertex -1 -10.0302 -12.3349
      vertex -5 -9.77381 -12.1041
      vertex -5 -10.0302 -12.3349
    endloop
  endfacet
  facet normal 0 0.913536 -0.406757
    outer loop
      vertex -1 -12.5692 -10.4901
      vertex -5 -12.4289 -10.175
      vertex -1 -12.4289 -10.175
    endloop
  endfacet
  facet normal 0 0.913536 -0.406757
    outer loop
      vertex -5 -12.4289 -10.175
      vertex -1 -12.5692 -10.4901
      vertex -5 -12.5692 -10.4901
    endloop
  endfacet
  facet normal 0 0.978098 -0.208143
    outer loop
      vertex -1 -12.641 -10.8275
      vertex -5 -12.5692 -10.4901
      vertex -1 -12.5692 -10.4901
    endloop
  endfacet
  facet normal 0 0.978098 -0.208143
    outer loop
      vertex -5 -12.5692 -10.4901
      vertex -1 -12.641 -10.8275
      vertex -5 -12.641 -10.8275
    endloop
  endfacet
  facet normal 0 -0.809026 -0.587773
    outer loop
      vertex -5 -9.57106 -10.175
      vertex -1 -9.77381 -9.89593
      vertex -5 -9.77381 -9.89593
    endloop
  endfacet
  facet normal 0 -0.809026 -0.587773
    outer loop
      vertex -1 -9.77381 -9.89593
      vertex -5 -9.57106 -10.175
      vertex -1 -9.57106 -10.175
    endloop
  endfacet
  facet normal 0 1 -0
    outer loop
      vertex -1 -12.641 -11.1725
      vertex -5 -12.641 -10.8275
      vertex -1 -12.641 -10.8275
    endloop
  endfacet
  facet normal 0 1 0
    outer loop
      vertex -5 -12.641 -10.8275
      vertex -1 -12.641 -11.1725
      vertex -5 -12.641 -11.1725
    endloop
  endfacet
  facet normal -0 0.309086 0.951034
    outer loop
      vertex -5 -11.3431 -12.6139
      vertex -1 -11.6711 -12.5073
      vertex -1 -11.3431 -12.6139
    endloop
  endfacet
  facet normal 0 0.309086 0.951034
    outer loop
      vertex -1 -11.6711 -12.5073
      vertex -5 -11.3431 -12.6139
      vertex -5 -11.6711 -12.5073
    endloop
  endfacet
  facet normal -0 0.669029 0.743236
    outer loop
      vertex -5 -11.9698 -12.3349
      vertex -1 -12.2262 -12.1041
      vertex -1 -11.9698 -12.3349
    endloop
  endfacet
  facet normal 0 0.669029 0.743236
    outer loop
      vertex -1 -12.2262 -12.1041
      vertex -5 -11.9698 -12.3349
      vertex -5 -12.2262 -12.1041
    endloop
  endfacet
  facet normal 0 -0.499881 0.866094
    outer loop
      vertex -5 -10.0302 -12.3349
      vertex -1 -10.3289 -12.5073
      vertex -1 -10.0302 -12.3349
    endloop
  endfacet
  facet normal 0 -0.499881 0.866094
    outer loop
      vertex -1 -10.3289 -12.5073
      vertex -5 -10.0302 -12.3349
      vertex -5 -10.3289 -12.5073
    endloop
  endfacet
  facet normal 0 0.309002 -0.951061
    outer loop
      vertex -13 -12.2609 -8.16801
      vertex -5 -11.6445 -7.96774
      vertex -5 -12.2609 -8.16801
    endloop
  endfacet
  facet normal 0 0.309002 -0.951061
    outer loop
      vertex -5 -11.6445 -7.96774
      vertex -13 -12.2609 -8.16801
      vertex -13 -11.6445 -7.96774
    endloop
  endfacet
  facet normal 0 0.808963 0.58786
    outer loop
      vertex -5 -13.3037 -13.0743
      vertex -13 -13.6847 -12.55
      vertex -5 -13.6847 -12.55
    endloop
  endfacet
  facet normal 0 0.808963 0.58786
    outer loop
      vertex -13 -13.6847 -12.55
      vertex -5 -13.3037 -13.0743
      vertex -13 -13.3037 -13.0743
    endloop
  endfacet
  facet normal 0 -0.978154 -0.207881
    outer loop
      vertex -13 -7.91698 -10.676
      vertex -5 -8.05172 -10.042
      vertex -13 -8.05172 -10.042
    endloop
  endfacet
  facet normal 0 -0.978154 -0.207881
    outer loop
      vertex -5 -8.05172 -10.042
      vertex -13 -7.91698 -10.676
      vertex -5 -7.91698 -10.676
    endloop
  endfacet
  facet normal 0 -0.104529 -0.994522
    outer loop
      vertex -13 -11 -7.9
      vertex -5 -10.3555 -7.96774
      vertex -5 -11 -7.9
    endloop
  endfacet
  facet normal -0 -0.104529 -0.994522
    outer loop
      vertex -5 -10.3555 -7.96774
      vertex -13 -11 -7.9
      vertex -13 -10.3555 -7.96774
    endloop
  endfacet
  facet normal 0 0.978167 -0.207822
    outer loop
      vertex -5 -14.083 -10.676
      vertex -13 -13.9483 -10.042
      vertex -5 -13.9483 -10.042
    endloop
  endfacet
  facet normal 0 0.978167 -0.207822
    outer loop
      vertex -13 -13.9483 -10.042
      vertex -5 -14.083 -10.676
      vertex -13 -14.083 -10.676
    endloop
  endfacet
  facet normal 0 -0.66912 -0.743154
    outer loop
      vertex -13 -9.17787 -8.49205
      vertex -5 -8.69625 -8.92569
      vertex -5 -9.17787 -8.49205
    endloop
  endfacet
  facet normal -0 -0.66912 -0.743154
    outer loop
      vertex -5 -8.69625 -8.92569
      vertex -13 -9.17787 -8.49205
      vertex -13 -8.69625 -8.92569
    endloop
  endfacet
  facet normal -0 0.49999 0.866031
    outer loop
      vertex -13 -12.2609 -13.832
      vertex -5 -12.8221 -13.508
      vertex -5 -12.2609 -13.832
    endloop
  endfacet
  facet normal 0 0.49999 0.866031
    outer loop
      vertex -5 -12.8221 -13.508
      vertex -13 -12.2609 -13.832
      vertex -13 -12.8221 -13.508
    endloop
  endfacet
  facet normal -0 0.309044 0.951048
    outer loop
      vertex -13 -11.6445 -14.0323
      vertex -5 -12.2609 -13.832
      vertex -5 -11.6445 -14.0323
    endloop
  endfacet
  facet normal 0 0.309044 0.951048
    outer loop
      vertex -5 -12.2609 -13.832
      vertex -13 -11.6445 -14.0323
      vertex -13 -12.2609 -13.832
    endloop
  endfacet
  facet normal 0 -0.309011 -0.951058
    outer loop
      vertex -13 -10.3555 -7.96774
      vertex -5 -9.73912 -8.16801
      vertex -5 -10.3555 -7.96774
    endloop
  endfacet
  facet normal -0 -0.309011 -0.951058
    outer loop
      vertex -5 -9.73912 -8.16801
      vertex -13 -10.3555 -7.96774
      vertex -13 -9.73912 -8.16801
    endloop
  endfacet
  facet normal 0 0.978167 0.207822
    outer loop
      vertex -5 -13.9483 -11.958
      vertex -13 -14.083 -11.324
      vertex -5 -14.083 -11.324
    endloop
  endfacet
  facet normal 0 0.978167 0.207822
    outer loop
      vertex -13 -14.083 -11.324
      vertex -5 -13.9483 -11.958
      vertex -13 -13.9483 -11.958
    endloop
  endfacet
  facet normal 0 -0.80902 -0.587782
    outer loop
      vertex -13 -8.31532 -9.45
      vertex -5 -8.69625 -8.92569
      vertex -13 -8.69625 -8.92569
    endloop
  endfacet
  facet normal 0 -0.80902 -0.587782
    outer loop
      vertex -5 -8.69625 -8.92569
      vertex -13 -8.31532 -9.45
      vertex -5 -8.31532 -9.45
    endloop
  endfacet
  facet normal 0 -0.913531 -0.406768
    outer loop
      vertex -13 -8.05172 -10.042
      vertex -5 -8.31532 -9.45
      vertex -13 -8.31532 -9.45
    endloop
  endfacet
  facet normal 0 -0.913531 -0.406768
    outer loop
      vertex -5 -8.31532 -9.45
      vertex -13 -8.05172 -10.042
      vertex -5 -8.05172 -10.042
    endloop
  endfacet
  facet normal 0 -0.309053 0.951045
    outer loop
      vertex -13 -9.73912 -13.832
      vertex -5 -10.3555 -14.0323
      vertex -5 -9.73912 -13.832
    endloop
  endfacet
  facet normal 0 -0.309053 0.951045
    outer loop
      vertex -5 -10.3555 -14.0323
      vertex -13 -9.73912 -13.832
      vertex -13 -10.3555 -14.0323
    endloop
  endfacet
  facet normal 0 -0.499956 0.866051
    outer loop
      vertex -13 -9.17787 -13.508
      vertex -5 -9.73912 -13.832
      vertex -5 -9.17787 -13.508
    endloop
  endfacet
  facet normal 0 -0.499956 0.866051
    outer loop
      vertex -5 -9.73912 -13.832
      vertex -13 -9.17787 -13.508
      vertex -13 -9.73912 -13.832
    endloop
  endfacet
  facet normal 0 0.808968 -0.587852
    outer loop
      vertex -5 -13.6847 -9.45
      vertex -13 -13.3037 -8.92569
      vertex -5 -13.3037 -8.92569
    endloop
  endfacet
  facet normal 0 0.808968 -0.587852
    outer loop
      vertex -13 -13.3037 -8.92569
      vertex -5 -13.6847 -9.45
      vertex -13 -13.6847 -9.45
    endloop
  endfacet
  facet normal 0 -0.978154 0.207881
    outer loop
      vertex -13 -8.05172 -11.958
      vertex -5 -7.91698 -11.324
      vertex -13 -7.91698 -11.324
    endloop
  endfacet
  facet normal 0 -0.978154 0.207881
    outer loop
      vertex -5 -7.91698 -11.324
      vertex -13 -8.05172 -11.958
      vertex -5 -8.05172 -11.958
    endloop
  endfacet
  facet normal 0 0.104529 -0.994522
    outer loop
      vertex -13 -11.6445 -7.96774
      vertex -5 -11 -7.9
      vertex -5 -11.6445 -7.96774
    endloop
  endfacet
  facet normal 0 0.104529 -0.994522
    outer loop
      vertex -5 -11 -7.9
      vertex -13 -11.6445 -7.96774
      vertex -13 -11 -7.9
    endloop
  endfacet
  facet normal 0 -0.669171 0.743108
    outer loop
      vertex -13 -8.69625 -13.0743
      vertex -5 -9.17787 -13.508
      vertex -5 -8.69625 -13.0743
    endloop
  endfacet
  facet normal 0 -0.669171 0.743108
    outer loop
      vertex -5 -9.17787 -13.508
      vertex -13 -8.69625 -13.0743
      vertex -13 -9.17787 -13.508
    endloop
  endfacet
  facet normal -1 0 0
    outer loop
      vertex -5 -9.35904 -11.1725
      vertex -5 -7.91698 -11.324
      vertex -5 -8.05172 -11.958
    endloop
  endfacet
  facet normal -1 0 0
    outer loop
      vertex -5 -7.91698 -11.324
      vertex -5 -9.35904 -11.1725
      vertex -5 -7.91698 -10.676
    endloop
  endfacet
  facet normal -1 0 0
    outer loop
      vertex -5 -9.43076 -11.5099
      vertex -5 -8.05172 -11.958
      vertex -5 -8.31532 -12.55
    endloop
  endfacet
  facet normal -1 0 0
    outer loop
      vertex -5 -9.35904 -10.8275
      vertex -5 -7.91698 -10.676
      vertex -5 -9.35904 -11.1725
    endloop
  endfacet
  facet normal -1 0 0
    outer loop
      vertex -5 -9.57106 -11.825
      vertex -5 -8.31532 -12.55
      vertex -5 -8.69625 -13.0743
    endloop
  endfacet
  facet normal -1 -0 0
    outer loop
      vertex -5 -7.91698 -10.676
      vertex -5 -9.35904 -10.8275
      vertex -5 -8.05172 -10.042
    endloop
  endfacet
  facet normal -1 0 0
    outer loop
      vertex -5 -9.77381 -12.1041
      vertex -5 -8.69625 -13.0743
      vertex -5 -9.17787 -13.508
    endloop
  endfacet
  facet normal -1 0 0
    outer loop
      vertex -5 -9.43076 -10.4901
      vertex -5 -8.05172 -10.042
      vertex -5 -9.35904 -10.8275
    endloop
  endfacet
  facet normal -1 -0 0
    outer loop
      vertex -5 -8.05172 -10.042
      vertex -5 -9.43076 -10.4901
      vertex -5 -8.31532 -9.45
    endloop
  endfacet
  facet normal -1 0 0
    outer loop
      vertex -5 -8.05172 -11.958
      vertex -5 -9.43076 -11.5099
      vertex -5 -9.35904 -11.1725
    endloop
  endfacet
  facet normal -1 0 0
    outer loop
      vertex -5 -8.31532 -12.55
      vertex -5 -9.57106 -11.825
      vertex -5 -9.43076 -11.5099
    endloop
  endfacet
  facet normal -1 0 0
    outer loop
      vertex -5 -10.0302 -12.3349
      vertex -5 -9.17787 -13.508
      vertex -5 -9.73912 -13.832
    endloop
  endfacet
  facet normal -1 0 0
    outer loop
      vertex -5 -8.69625 -13.0743
      vertex -5 -9.77381 -12.1041
      vertex -5 -9.57106 -11.825
    endloop
  endfacet
  facet normal -1 0 0
    outer loop
      vertex -5 -9.17787 -13.508
      vertex -5 -10.0302 -12.3349
      vertex -5 -9.77381 -12.1041
    endloop
  endfacet
  facet normal -1 0 0
    outer loop
      vertex -5 -9.73912 -13.832
      vertex -5 -10.3289 -12.5073
      vertex -5 -10.0302 -12.3349
    endloop
  endfacet
  facet normal -1 0 0
    outer loop
      vertex -5 -10.3555 -14.0323
      vertex -5 -10.3289 -12.5073
      vertex -5 -9.73912 -13.832
    endloop
  endfacet
  facet normal -1 0 0
    outer loop
      vertex -5 -10.3555 -14.0323
      vertex -5 -10.6569 -12.6139
      vertex -5 -10.3289 -12.5073
    endloop
  endfacet
  facet normal -1 0 0
    outer loop
      vertex -5 -11 -14.1
      vertex -5 -10.6569 -12.6139
      vertex -5 -10.3555 -14.0323
    endloop
  endfacet
  facet normal -1 0 0
    outer loop
      vertex -5 -11 -14.1
      vertex -5 -11 -12.65
      vertex -5 -10.6569 -12.6139
    endloop
  endfacet
  facet normal -1 0 0
    outer loop
      vertex -5 -11 -14.1
      vertex -5 -11.3431 -12.6139
      vertex -5 -11 -12.65
    endloop
  endfacet
  facet normal -1 0 0
    outer loop
      vertex -5 -11.6445 -14.0323
      vertex -5 -11.3431 -12.6139
      vertex -5 -11 -14.1
    endloop
  endfacet
  facet normal -1 0 0
    outer loop
      vertex -5 -11.6445 -14.0323
      vertex -5 -11.6711 -12.5073
      vertex -5 -11.3431 -12.6139
    endloop
  endfacet
  facet normal -1 0 0
    outer loop
      vertex -5 -12.2609 -13.832
      vertex -5 -11.6711 -12.5073
      vertex -5 -11.6445 -14.0323
    endloop
  endfacet
  facet normal -1 -0 0
    outer loop
      vertex -5 -11.6711 -12.5073
      vertex -5 -12.2609 -13.832
      vertex -5 -11.9698 -12.3349
    endloop
  endfacet
  facet normal -1 0 0
    outer loop
      vertex -5 -12.8221 -13.508
      vertex -5 -11.9698 -12.3349
      vertex -5 -12.2609 -13.832
    endloop
  endfacet
  facet normal -1 -0 0
    outer loop
      vertex -5 -11.9698 -12.3349
      vertex -5 -12.8221 -13.508
      vertex -5 -12.2262 -12.1041
    endloop
  endfacet
  facet normal -1 0 0
    outer loop
      vertex -5 -13.3037 -13.0743
      vertex -5 -12.2262 -12.1041
      vertex -5 -12.8221 -13.508
    endloop
  endfacet
  facet normal -1 -0 0
    outer loop
      vertex -5 -12.2262 -12.1041
      vertex -5 -13.3037 -13.0743
      vertex -5 -12.4289 -11.825
    endloop
  endfacet
  facet normal -1 -0 0
    outer loop
      vertex -5 -12.4289 -11.825
      vertex -5 -13.6847 -12.55
      vertex -5 -12.5692 -11.5099
    endloop
  endfacet
  facet normal -1 0 0
    outer loop
      vertex -5 -13.6847 -12.55
      vertex -5 -12.4289 -11.825
      vertex -5 -13.3037 -13.0743
    endloop
  endfacet
  facet normal -1 0 0
    outer loop
      vertex -5 -9.57106 -10.175
      vertex -5 -8.31532 -9.45
      vertex -5 -9.43076 -10.4901
    endloop
  endfacet
  facet normal -1 -0 0
    outer loop
      vertex -5 -8.31532 -9.45
      vertex -5 -9.57106 -10.175
      vertex -5 -8.69625 -8.92569
    endloop
  endfacet
  facet normal -1 0 0
    outer loop
      vertex -5 -9.77381 -9.89593
      vertex -5 -8.69625 -8.92569
      vertex -5 -9.57106 -10.175
    endloop
  endfacet
  facet normal -1 -0 0
    outer loop
      vertex -5 -8.69625 -8.92569
      vertex -5 -9.77381 -9.89593
      vertex -5 -9.17787 -8.49205
    endloop
  endfacet
  facet normal -1 0 0
    outer loop
      vertex -5 -10.0302 -9.66512
      vertex -5 -9.17787 -8.49205
      vertex -5 -9.77381 -9.89593
    endloop
  endfacet
  facet normal -1 -0 0
    outer loop
      vertex -5 -9.17787 -8.49205
      vertex -5 -10.0302 -9.66512
      vertex -5 -9.73912 -8.16801
    endloop
  endfacet
  facet normal -1 0 0
    outer loop
      vertex -5 -10.3289 -9.49265
      vertex -5 -9.73912 -8.16801
      vertex -5 -10.0302 -9.66512
    endloop
  endfacet
  facet normal -1 0 0
    outer loop
      vertex -5 -10.3289 -9.49265
      vertex -5 -10.3555 -7.96774
      vertex -5 -9.73912 -8.16801
    endloop
  endfacet
  facet normal -1 0 0
    outer loop
      vertex -5 -10.6569 -9.38606
      vertex -5 -10.3555 -7.96774
      vertex -5 -10.3289 -9.49265
    endloop
  endfacet
  facet normal -1 0 0
    outer loop
      vertex -5 -11 -9.35
      vertex -5 -10.3555 -7.96774
      vertex -5 -10.6569 -9.38606
    endloop
  endfacet
  facet normal -1 0 0
    outer loop
      vertex -5 -11 -9.35
      vertex -5 -11 -7.9
      vertex -5 -10.3555 -7.96774
    endloop
  endfacet
  facet normal -1 0 0
    outer loop
      vertex -5 -11.3431 -9.38606
      vertex -5 -11 -7.9
      vertex -5 -11 -9.35
    endloop
  endfacet
  facet normal -1 0 0
    outer loop
      vertex -5 -11.3431 -9.38606
      vertex -5 -11.6445 -7.96774
      vertex -5 -11 -7.9
    endloop
  endfacet
  facet normal -1 0 0
    outer loop
      vertex -5 -11.6711 -9.49265
      vertex -5 -11.6445 -7.96774
      vertex -5 -11.3431 -9.38606
    endloop
  endfacet
  facet normal -1 0 0
    outer loop
      vertex -5 -12.2609 -8.16801
      vertex -5 -11.6711 -9.49265
      vertex -5 -11.9698 -9.66512
    endloop
  endfacet
  facet normal -1 0 0
    outer loop
      vertex -5 -12.8221 -8.49205
      vertex -5 -11.9698 -9.66512
      vertex -5 -12.2262 -9.89593
    endloop
  endfacet
  facet normal -1 0 0
    outer loop
      vertex -5 -11.6711 -9.49265
      vertex -5 -12.2609 -8.16801
      vertex -5 -11.6445 -7.96774
    endloop
  endfacet
  facet normal -1 0 0
    outer loop
      vertex -5 -13.3037 -8.92569
      vertex -5 -12.2262 -9.89593
      vertex -5 -12.4289 -10.175
    endloop
  endfacet
  facet normal -1 0 0
    outer loop
      vertex -5 -13.6847 -9.45
      vertex -5 -12.4289 -10.175
      vertex -5 -12.5692 -10.4901
    endloop
  endfacet
  facet normal -1 0 0
    outer loop
      vertex -5 -13.9483 -10.042
      vertex -5 -12.5692 -10.4901
      vertex -5 -12.641 -10.8275
    endloop
  endfacet
  facet normal -1 0 0
    outer loop
      vertex -5 -11.9698 -9.66512
      vertex -5 -12.8221 -8.49205
      vertex -5 -12.2609 -8.16801
    endloop
  endfacet
  facet normal -1 0 0
    outer loop
      vertex -5 -13.9483 -11.958
      vertex -5 -12.5692 -11.5099
      vertex -5 -13.6847 -12.55
    endloop
  endfacet
  facet normal -1 -0 0
    outer loop
      vertex -5 -12.5692 -11.5099
      vertex -5 -13.9483 -11.958
      vertex -5 -12.641 -11.1725
    endloop
  endfacet
  facet normal -1 0 0
    outer loop
      vertex -5 -12.2262 -9.89593
      vertex -5 -13.3037 -8.92569
      vertex -5 -12.8221 -8.49205
    endloop
  endfacet
  facet normal -1 0 0
    outer loop
      vertex -5 -14.083 -11.324
      vertex -5 -12.641 -11.1725
      vertex -5 -13.9483 -11.958
    endloop
  endfacet
  facet normal -1 0 0
    outer loop
      vertex -5 -12.4289 -10.175
      vertex -5 -13.6847 -9.45
      vertex -5 -13.3037 -8.92569
    endloop
  endfacet
  facet normal -1 -0 0
    outer loop
      vertex -5 -12.641 -11.1725
      vertex -5 -14.083 -11.324
      vertex -5 -12.641 -10.8275
    endloop
  endfacet
  facet normal -1 0 0
    outer loop
      vertex -5 -12.5692 -10.4901
      vertex -5 -13.9483 -10.042
      vertex -5 -13.6847 -9.45
    endloop
  endfacet
  facet normal -1 0 0
    outer loop
      vertex -5 -14.083 -10.676
      vertex -5 -12.641 -10.8275
      vertex -5 -14.083 -11.324
    endloop
  endfacet
  facet normal -1 0 0
    outer loop
      vertex -5 -12.641 -10.8275
      vertex -5 -14.083 -10.676
      vertex -5 -13.9483 -10.042
    endloop
  endfacet
  facet normal 0 -1 0
    outer loop
      vertex -13 -7.91698 -11.324
      vertex -5 -7.91698 -10.676
      vertex -13 -7.91698 -10.676
    endloop
  endfacet
  facet normal 0 -1 -0
    outer loop
      vertex -5 -7.91698 -10.676
      vertex -13 -7.91698 -11.324
      vertex -5 -7.91698 -11.324
    endloop
  endfacet
  facet normal 0 0.500036 -0.866005
    outer loop
      vertex -13 -12.8221 -8.49205
      vertex -5 -12.2609 -8.16801
      vertex -5 -12.8221 -8.49205
    endloop
  endfacet
  facet normal 0 0.500036 -0.866005
    outer loop
      vertex -5 -12.2609 -8.16801
      vertex -13 -12.8221 -8.49205
      vertex -13 -12.2609 -8.16801
    endloop
  endfacet
  facet normal 0 -0.809014 0.587789
    outer loop
      vertex -13 -8.69625 -13.0743
      vertex -5 -8.31532 -12.55
      vertex -13 -8.31532 -12.55
    endloop
  endfacet
  facet normal 0 -0.809014 0.587789
    outer loop
      vertex -5 -8.31532 -12.55
      vertex -13 -8.69625 -13.0743
      vertex -5 -8.69625 -13.0743
    endloop
  endfacet
  facet normal 0 0.913531 -0.406768
    outer loop
      vertex -5 -13.9483 -10.042
      vertex -13 -13.6847 -9.45
      vertex -5 -13.6847 -9.45
    endloop
  endfacet
  facet normal 0 0.913531 -0.406768
    outer loop
      vertex -13 -13.6847 -9.45
      vertex -5 -13.9483 -10.042
      vertex -13 -13.9483 -10.042
    endloop
  endfacet
  facet normal 0 -0.913531 0.406768
    outer loop
      vertex -13 -8.31532 -12.55
      vertex -5 -8.05172 -11.958
      vertex -13 -8.05172 -11.958
    endloop
  endfacet
  facet normal 0 -0.913531 0.406768
    outer loop
      vertex -5 -8.05172 -11.958
      vertex -13 -8.31532 -12.55
      vertex -5 -8.31532 -12.55
    endloop
  endfacet
  facet normal 0 0.669135 -0.743141
    outer loop
      vertex -13 -13.3037 -8.92569
      vertex -5 -12.8221 -8.49205
      vertex -5 -13.3037 -8.92569
    endloop
  endfacet
  facet normal 0 0.669135 -0.743141
    outer loop
      vertex -5 -12.8221 -8.49205
      vertex -13 -13.3037 -8.92569
      vertex -13 -12.8221 -8.49205
    endloop
  endfacet
  facet normal 0 -0.104468 0.994528
    outer loop
      vertex -13 -10.3555 -14.0323
      vertex -5 -11 -14.1
      vertex -5 -10.3555 -14.0323
    endloop
  endfacet
  facet normal 0 -0.104468 0.994528
    outer loop
      vertex -5 -11 -14.1
      vertex -13 -10.3555 -14.0323
      vertex -13 -11 -14.1
    endloop
  endfacet
  facet normal 0 1 -0
    outer loop
      vertex -5 -14.083 -11.324
      vertex -13 -14.083 -10.676
      vertex -5 -14.083 -10.676
    endloop
  endfacet
  facet normal 0 1 0
    outer loop
      vertex -13 -14.083 -10.676
      vertex -5 -14.083 -11.324
      vertex -13 -14.083 -11.324
    endloop
  endfacet
  facet normal 0 -0.500003 -0.866024
    outer loop
      vertex -13 -9.73912 -8.16801
      vertex -5 -9.17787 -8.49205
      vertex -5 -9.73912 -8.16801
    endloop
  endfacet
  facet normal -0 -0.500003 -0.866024
    outer loop
      vertex -5 -9.17787 -8.49205
      vertex -13 -9.73912 -8.16801
      vertex -13 -9.17787 -8.49205
    endloop
  endfacet
  facet normal -0 0.669186 0.743095
    outer loop
      vertex -13 -12.8221 -13.508
      vertex -5 -13.3037 -13.0743
      vertex -5 -12.8221 -13.508
    endloop
  endfacet
  facet normal 0 0.669186 0.743095
    outer loop
      vertex -5 -13.3037 -13.0743
      vertex -13 -12.8221 -13.508
      vertex -13 -13.3037 -13.0743
    endloop
  endfacet
  facet normal -0 0.104468 0.994528
    outer loop
      vertex -13 -11 -14.1
      vertex -5 -11.6445 -14.0323
      vertex -5 -11 -14.1
    endloop
  endfacet
  facet normal 0 0.104468 0.994528
    outer loop
      vertex -5 -11.6445 -14.0323
      vertex -13 -11 -14.1
      vertex -13 -11.6445 -14.0323
    endloop
  endfacet
  facet normal 0 0.913531 0.406768
    outer loop
      vertex -5 -13.6847 -12.55
      vertex -13 -13.9483 -11.958
      vertex -5 -13.9483 -11.958
    endloop
  endfacet
  facet normal 0 0.913531 0.406768
    outer loop
      vertex -13 -13.9483 -11.958
      vertex -5 -13.6847 -12.55
      vertex -13 -13.6847 -12.55
    endloop
  endfacet
  facet normal 0.500005 -0.707099 0.500005
    outer loop
      vertex -6.74201 -15.4536 -1
      vertex -7.51472 -16 -1
      vertex -2.71231 -16 -5.80241
    endloop
  endfacet
  facet normal -0 0.866023 0.500004
    outer loop
      vertex -13 -7 -7.87564
      vertex -6.74201 -10.9697 -1
      vertex -0.972661 -7 -7.87564
    endloop
  endfacet
  facet normal 0 0.866023 0.500004
    outer loop
      vertex -6.74201 -10.9697 -1
      vertex -13 -7 -7.87564
      vertex -13 -10.9697 -1
    endloop
  endfacet
  facet normal 0.766046 -9.81302e-07 0.642786
    outer loop
      vertex -0.5 -8 -8.43894
      vertex -0.972661 -7 -7.87564
      vertex -1 -8 -7.84306
    endloop
  endfacet
  facet normal 0.766045 -8.77918e-07 0.642787
    outer loop
      vertex -6.74201 -10.9697 -1
      vertex -1 -8 -7.84306
      vertex -0.972661 -7 -7.87564
    endloop
  endfacet
  facet normal 0.766044 0 0.642788
    outer loop
      vertex -6.74201 -10.9697 -1
      vertex -1 -12.8887 -7.84306
      vertex -1 -8 -7.84306
    endloop
  endfacet
  facet normal 0.766044 -2.23737e-07 0.642788
    outer loop
      vertex -2.71231 -16 -5.80241
      vertex -1 -12.8887 -7.84306
      vertex -6.74201 -10.9697 -1
    endloop
  endfacet
  facet normal 0.766044 -0 0.642788
    outer loop
      vertex -1 -16 -7.84306
      vertex -1 -12.8887 -7.84306
      vertex -2.71231 -16 -5.80241
    endloop
  endfacet
  facet normal 0.766044 0 0.642788
    outer loop
      vertex -2.71231 -16 -5.80241
      vertex -6.74201 -10.9697 -1
      vertex -6.74201 -15.4536 -1
    endloop
  endfacet
  facet normal 0.766044 0 0.642788
    outer loop
      vertex -1 -12.8887 -7.84306
      vertex -1 -16 -7.84306
      vertex 0.509333 -14.3981 -9.64181
    endloop
  endfacet
  facet normal 0.766044 0 0.642788
    outer loop
      vertex 0.509333 -14.3981 -9.64181
      vertex -1 -16 -7.84306
      vertex 0.509333 -14.4907 -9.64181
    endloop
  endfacet
  facet normal 0.766047 0 0.642785
    outer loop
      vertex -0.972661 -7 -7.87564
      vertex -0.5 -8 -8.43894
      vertex -0.5 -7 -8.43894
    endloop
  endfacet
  facet normal -0.642776 0 0.766054
    outer loop
      vertex 0.509333 -14.3981 -9.64181
      vertex 0.509333 -14.4907 -9.64181
      vertex 0.555634 -14.4444 -9.60296
    endloop
  endfacet
endsolid OpenSCAD_Model
